<?xml version="1.0" encoding="UTF-8"?>
<svg xmlns="http://www.w3.org/2000/svg" xmlns:xlink="http://www.w3.org/1999/xlink" width="110.49" height="71.215" viewBox="0 0 110.49 71.215">
<defs>
<g>
<g id="glyph-0-0">
<path d="M 5.109375 -3.671875 C 5.234375 -3.671875 5.59375 -3.671875 5.59375 -4.015625 C 5.59375 -4.25 5.390625 -4.25 5.203125 -4.25 L 2.953125 -4.25 C 1.46875 -4.25 0.375 -2.625 0.375 -1.453125 C 0.375 -0.578125 0.953125 0.109375 1.859375 0.109375 C 3.015625 0.109375 4.328125 -1.078125 4.328125 -2.609375 C 4.328125 -2.765625 4.328125 -3.25 4.015625 -3.671875 Z M 1.859375 -0.109375 C 1.375 -0.109375 0.984375 -0.46875 0.984375 -1.171875 C 0.984375 -1.46875 1.109375 -2.28125 1.453125 -2.859375 C 1.859375 -3.546875 2.453125 -3.671875 2.796875 -3.671875 C 3.625 -3.671875 3.703125 -3.03125 3.703125 -2.71875 C 3.703125 -2.25 3.5 -1.453125 3.171875 -0.953125 C 2.78125 -0.359375 2.25 -0.109375 1.859375 -0.109375 Z M 1.859375 -0.109375 "/>
</g>
<g id="glyph-0-1">
<path d="M 2.828125 -6.734375 C 2.828125 -6.75 2.828125 -6.84375 2.703125 -6.84375 C 2.46875 -6.84375 1.75 -6.765625 1.5 -6.75 C 1.421875 -6.734375 1.3125 -6.71875 1.3125 -6.546875 C 1.3125 -6.421875 1.40625 -6.421875 1.546875 -6.421875 C 2.015625 -6.421875 2.046875 -6.359375 2.046875 -6.265625 L 2.015625 -6.0625 L 0.578125 -0.390625 C 0.546875 -0.25 0.546875 -0.234375 0.546875 -0.171875 C 0.546875 0.0625 0.734375 0.109375 0.828125 0.109375 C 0.984375 0.109375 1.140625 -0.015625 1.1875 -0.140625 L 1.375 -0.890625 L 1.59375 -1.78125 C 1.65625 -2 1.71875 -2.21875 1.765625 -2.4375 C 1.78125 -2.5 1.859375 -2.828125 1.875 -2.890625 C 1.90625 -2.984375 2.203125 -3.53125 2.546875 -3.796875 C 2.765625 -3.953125 3.0625 -4.140625 3.484375 -4.140625 C 3.921875 -4.140625 4.015625 -3.8125 4.015625 -3.453125 C 4.015625 -2.921875 3.640625 -1.84375 3.40625 -1.25 C 3.328125 -1.015625 3.28125 -0.890625 3.28125 -0.703125 C 3.28125 -0.234375 3.625 0.109375 4.09375 0.109375 C 5.015625 0.109375 5.390625 -1.328125 5.390625 -1.40625 C 5.390625 -1.515625 5.296875 -1.515625 5.265625 -1.515625 C 5.171875 -1.515625 5.171875 -1.484375 5.109375 -1.328125 C 4.96875 -0.8125 4.65625 -0.109375 4.109375 -0.109375 C 3.9375 -0.109375 3.875 -0.203125 3.875 -0.4375 C 3.875 -0.6875 3.96875 -0.921875 4.046875 -1.140625 C 4.203125 -1.5625 4.65625 -2.734375 4.65625 -3.296875 C 4.65625 -3.9375 4.265625 -4.359375 3.515625 -4.359375 C 2.90625 -4.359375 2.421875 -4.046875 2.0625 -3.59375 Z M 2.828125 -6.734375 "/>
</g>
<g id="glyph-0-2">
<path d="M 3.296875 -2.984375 C 3.359375 -3.234375 3.578125 -4.140625 4.265625 -4.140625 C 4.3125 -4.140625 4.5625 -4.140625 4.765625 -4.015625 C 4.484375 -3.96875 4.28125 -3.71875 4.28125 -3.484375 C 4.28125 -3.328125 4.390625 -3.140625 4.65625 -3.140625 C 4.875 -3.140625 5.203125 -3.3125 5.203125 -3.703125 C 5.203125 -4.21875 4.609375 -4.359375 4.28125 -4.359375 C 3.703125 -4.359375 3.359375 -3.828125 3.25 -3.609375 C 3 -4.265625 2.46875 -4.359375 2.171875 -4.359375 C 1.15625 -4.359375 0.59375 -3.09375 0.59375 -2.84375 C 0.59375 -2.734375 0.6875 -2.734375 0.703125 -2.734375 C 0.78125 -2.734375 0.8125 -2.765625 0.84375 -2.84375 C 1.171875 -3.890625 1.828125 -4.140625 2.15625 -4.140625 C 2.34375 -4.140625 2.6875 -4.046875 2.6875 -3.484375 C 2.6875 -3.171875 2.53125 -2.515625 2.15625 -1.140625 C 2 -0.515625 1.65625 -0.109375 1.21875 -0.109375 C 1.15625 -0.109375 0.9375 -0.109375 0.734375 -0.234375 C 0.96875 -0.28125 1.1875 -0.5 1.1875 -0.765625 C 1.1875 -1.03125 0.96875 -1.109375 0.828125 -1.109375 C 0.53125 -1.109375 0.28125 -0.859375 0.28125 -0.546875 C 0.28125 -0.09375 0.78125 0.109375 1.21875 0.109375 C 1.859375 0.109375 2.21875 -0.578125 2.25 -0.640625 C 2.359375 -0.28125 2.71875 0.109375 3.3125 0.109375 C 4.328125 0.109375 4.890625 -1.15625 4.890625 -1.40625 C 4.890625 -1.515625 4.796875 -1.515625 4.765625 -1.515625 C 4.6875 -1.515625 4.65625 -1.46875 4.640625 -1.40625 C 4.3125 -0.34375 3.640625 -0.109375 3.328125 -0.109375 C 2.953125 -0.109375 2.796875 -0.421875 2.796875 -0.765625 C 2.796875 -0.96875 2.84375 -1.1875 2.953125 -1.625 Z M 3.296875 -2.984375 "/>
</g>
<g id="glyph-0-3">
<path d="M 4.796875 -3.75 C 4.828125 -3.890625 4.828125 -3.921875 4.828125 -3.984375 C 4.828125 -4.15625 4.6875 -4.25 4.546875 -4.25 C 4.453125 -4.25 4.28125 -4.1875 4.203125 -4.046875 C 4.1875 -4 4.09375 -3.6875 4.0625 -3.515625 C 4 -3.25 3.921875 -2.984375 3.859375 -2.71875 L 3.421875 -0.953125 C 3.375 -0.796875 2.953125 -0.109375 2.3125 -0.109375 C 1.796875 -0.109375 1.703125 -0.546875 1.703125 -0.90625 C 1.703125 -1.359375 1.859375 -1.96875 2.203125 -2.84375 C 2.359375 -3.25 2.390625 -3.359375 2.390625 -3.546875 C 2.390625 -4 2.078125 -4.359375 1.59375 -4.359375 C 0.65625 -4.359375 0.28125 -2.921875 0.28125 -2.84375 C 0.28125 -2.734375 0.390625 -2.734375 0.40625 -2.734375 C 0.5 -2.734375 0.515625 -2.765625 0.5625 -2.921875 C 0.828125 -3.84375 1.21875 -4.140625 1.5625 -4.140625 C 1.640625 -4.140625 1.796875 -4.140625 1.796875 -3.828125 C 1.796875 -3.578125 1.703125 -3.328125 1.640625 -3.140625 C 1.25 -2.09375 1.0625 -1.53125 1.0625 -1.0625 C 1.0625 -0.1875 1.6875 0.109375 2.265625 0.109375 C 2.65625 0.109375 2.984375 -0.0625 3.265625 -0.328125 C 3.140625 0.171875 3.015625 0.65625 2.625 1.1875 C 2.359375 1.515625 1.984375 1.796875 1.53125 1.796875 C 1.40625 1.796875 0.953125 1.78125 0.78125 1.390625 C 0.953125 1.390625 1.078125 1.390625 1.21875 1.265625 C 1.3125 1.1875 1.40625 1.0625 1.40625 0.875 C 1.40625 0.5625 1.140625 0.515625 1.046875 0.515625 C 0.8125 0.515625 0.5 0.6875 0.5 1.15625 C 0.5 1.65625 0.921875 2.015625 1.53125 2.015625 C 2.546875 2.015625 3.5625 1.125 3.84375 0.015625 Z M 4.796875 -3.75 "/>
</g>
<g id="glyph-1-0">
<path d="M 1.71875 -0.734375 C 1.640625 -0.5 1.421875 -0.125 1.0625 -0.125 C 1.046875 -0.125 0.84375 -0.125 0.703125 -0.21875 C 0.984375 -0.3125 1 -0.5625 1 -0.59375 C 1 -0.75 0.875 -0.859375 0.71875 -0.859375 C 0.53125 -0.859375 0.328125 -0.6875 0.328125 -0.4375 C 0.328125 -0.09375 0.71875 0.0625 1.046875 0.0625 C 1.375 0.0625 1.65625 -0.125 1.828125 -0.421875 C 1.984375 -0.0625 2.375 0.0625 2.640625 0.0625 C 3.4375 0.0625 3.859375 -0.796875 3.859375 -0.984375 C 3.859375 -1.078125 3.765625 -1.078125 3.75 -1.078125 C 3.65625 -1.078125 3.640625 -1.046875 3.625 -0.953125 C 3.46875 -0.484375 3.0625 -0.125 2.671875 -0.125 C 2.390625 -0.125 2.25 -0.3125 2.25 -0.578125 C 2.25 -0.75 2.421875 -1.375 2.609375 -2.140625 C 2.75 -2.671875 3.0625 -2.84375 3.28125 -2.84375 C 3.296875 -2.84375 3.515625 -2.84375 3.65625 -2.75 C 3.4375 -2.6875 3.359375 -2.5 3.359375 -2.375 C 3.359375 -2.21875 3.46875 -2.109375 3.625 -2.109375 C 3.796875 -2.109375 4.015625 -2.25 4.015625 -2.53125 C 4.015625 -2.921875 3.578125 -3.03125 3.296875 -3.03125 C 2.953125 -3.03125 2.6875 -2.8125 2.53125 -2.546875 C 2.40625 -2.828125 2.09375 -3.03125 1.703125 -3.03125 C 0.9375 -3.03125 0.484375 -2.1875 0.484375 -1.984375 C 0.484375 -1.890625 0.578125 -1.890625 0.609375 -1.890625 C 0.703125 -1.890625 0.703125 -1.921875 0.734375 -2.015625 C 0.90625 -2.546875 1.34375 -2.84375 1.6875 -2.84375 C 1.90625 -2.84375 2.09375 -2.71875 2.09375 -2.390625 C 2.09375 -2.25 2.015625 -1.90625 1.953125 -1.671875 Z M 1.71875 -0.734375 "/>
</g>
<g id="glyph-1-1">
<path d="M 3.828125 -2.59375 C 3.859375 -2.6875 3.859375 -2.703125 3.859375 -2.75 C 3.859375 -2.890625 3.75 -2.96875 3.625 -2.96875 C 3.5625 -2.96875 3.421875 -2.9375 3.34375 -2.796875 C 3.328125 -2.765625 3.265625 -2.546875 3.234375 -2.40625 L 3.09375 -1.828125 C 3.046875 -1.671875 2.84375 -0.796875 2.8125 -0.71875 C 2.8125 -0.71875 2.515625 -0.125 1.96875 -0.125 C 1.5 -0.125 1.5 -0.578125 1.5 -0.703125 C 1.5 -1.0625 1.65625 -1.5 1.875 -2.03125 C 1.953125 -2.25 1.984375 -2.328125 1.984375 -2.453125 C 1.984375 -2.78125 1.703125 -3.03125 1.328125 -3.03125 C 0.640625 -3.03125 0.328125 -2.109375 0.328125 -1.984375 C 0.328125 -1.890625 0.421875 -1.890625 0.4375 -1.890625 C 0.53125 -1.890625 0.546875 -1.921875 0.5625 -2 C 0.734375 -2.578125 1.03125 -2.84375 1.3125 -2.84375 C 1.421875 -2.84375 1.484375 -2.765625 1.484375 -2.609375 C 1.484375 -2.453125 1.421875 -2.296875 1.390625 -2.203125 C 1.046875 -1.359375 0.984375 -1.109375 0.984375 -0.8125 C 0.984375 -0.6875 0.984375 -0.359375 1.25 -0.140625 C 1.46875 0.03125 1.75 0.0625 1.9375 0.0625 C 2.21875 0.0625 2.46875 -0.03125 2.6875 -0.234375 C 2.609375 0.140625 2.53125 0.421875 2.234375 0.765625 C 2.046875 0.984375 1.78125 1.21875 1.40625 1.21875 C 1.359375 1.21875 1.046875 1.21875 0.890625 0.984375 C 1.265625 0.9375 1.265625 0.609375 1.265625 0.609375 C 1.265625 0.390625 1.0625 0.34375 1 0.34375 C 0.828125 0.34375 0.59375 0.484375 0.59375 0.796875 C 0.59375 1.15625 0.9375 1.40625 1.421875 1.40625 C 2.109375 1.40625 2.96875 0.875 3.171875 0 Z M 3.828125 -2.59375 "/>
</g>
</g>
</defs>
<path fill-rule="nonzero" fill="rgb(84.999084%, 84.999084%, 84.999084%)" fill-opacity="1" d="M 9.429688 52.34375 L 9.429688 18.699219 L 76.71875 18.699219 L 76.71875 52.34375 Z M 9.429688 52.34375 "/>
<path fill="none" stroke-width="0.3985" stroke-linecap="butt" stroke-linejoin="miter" stroke="rgb(0%, 0%, 0%)" stroke-opacity="1" stroke-dasharray="2.98883 2.98883" stroke-miterlimit="10" d="M 0.000667205 17.006989 L 68.031454 17.006989 " transform="matrix(0.989097, 0, 0, -0.989097, 9.429028, 52.345003)"/>
<path fill="none" stroke-width="0.79701" stroke-linecap="butt" stroke-linejoin="miter" stroke="rgb(100%, 0%, 0%)" stroke-opacity="1" stroke-miterlimit="10" d="M 68.031454 0.00126701 L 94.448378 0.00126701 " transform="matrix(0.989097, 0, 0, -0.989097, 9.429028, 52.345003)"/>
<path fill="none" stroke-width="0.79701" stroke-linecap="round" stroke-linejoin="round" stroke="rgb(100%, 0%, 0%)" stroke-opacity="1" stroke-miterlimit="10" d="M -2.550595 3.109373 C -2.084576 1.245299 -1.045908 0.364603 0.000658513 0.00126701 C -1.045908 -0.362069 -2.084576 -1.242765 -2.550595 -3.110788 " transform="matrix(0.989097, 0, 0, -0.989097, 103.241536, 52.345003)"/>
<path fill="none" stroke-width="0.79701" stroke-linecap="butt" stroke-linejoin="miter" stroke="rgb(100%, 0%, 0%)" stroke-opacity="1" stroke-miterlimit="10" d="M 68.031454 6.801976 L 83.564084 6.801976 " transform="matrix(0.989097, 0, 0, -0.989097, 9.429028, 52.345003)"/>
<path fill="none" stroke-width="0.79701" stroke-linecap="round" stroke-linejoin="round" stroke="rgb(100%, 0%, 0%)" stroke-opacity="1" stroke-miterlimit="10" d="M -2.549489 3.110941 C -2.08347 1.242918 -1.044802 0.362223 0.00176447 -0.00111387 C -1.044802 -0.36445 -2.08347 -1.245146 -2.549489 -3.10922 " transform="matrix(0.989097, 0, 0, -0.989097, 92.474817, 45.616086)"/>
<path fill="none" stroke-width="0.79701" stroke-linecap="butt" stroke-linejoin="miter" stroke="rgb(100%, 0%, 0%)" stroke-opacity="1" stroke-miterlimit="10" d="M 68.031454 13.606635 L 75.396914 13.606635 " transform="matrix(0.989097, 0, 0, -0.989097, 9.429028, 52.345003)"/>
<path fill="none" stroke-width="0.79701" stroke-linecap="round" stroke-linejoin="round" stroke="rgb(100%, 0%, 0%)" stroke-opacity="1" stroke-miterlimit="10" d="M -2.548669 3.11249 C -2.082651 1.244467 -1.047932 0.363771 -0.00136536 0.000434557 C -1.047932 -0.362902 -2.082651 -1.243598 -2.548669 -3.11162 " transform="matrix(0.989097, 0, 0, -0.989097, 84.399788, 38.887149)"/>
<path fill="none" stroke-width="0.79701" stroke-linecap="butt" stroke-linejoin="miter" stroke="rgb(100%, 0%, 0%)" stroke-opacity="1" stroke-miterlimit="10" d="M 68.031454 20.411293 L 60.665994 20.411293 " transform="matrix(0.989097, 0, 0, -0.989097, 9.429028, 52.345003)"/>
<path fill="none" stroke-width="0.79701" stroke-linecap="round" stroke-linejoin="round" stroke="rgb(100%, 0%, 0%)" stroke-opacity="1" stroke-miterlimit="10" d="M -2.551247 3.110602 C -2.085229 1.242579 -1.046561 0.361883 0.0000061195 -0.00145299 C -1.046561 -0.364789 -2.085229 -1.245485 -2.551247 -3.109559 " transform="matrix(-0.989097, 0, 0, 0.989097, 69.039069, 32.157687)"/>
<path fill="none" stroke-width="0.79701" stroke-linecap="butt" stroke-linejoin="miter" stroke="rgb(100%, 0%, 0%)" stroke-opacity="1" stroke-miterlimit="10" d="M 68.031454 27.212002 L 52.502774 27.212002 " transform="matrix(0.989097, 0, 0, -0.989097, 9.429028, 52.345003)"/>
<path fill="none" stroke-width="0.79701" stroke-linecap="round" stroke-linejoin="round" stroke="rgb(100%, 0%, 0%)" stroke-opacity="1" stroke-miterlimit="10" d="M -2.552057 3.109054 C -2.086038 1.24498 -1.04737 0.364284 -0.000803351 0.000947894 C -1.04737 -0.362388 -2.086038 -1.243084 -2.552057 -3.111107 " transform="matrix(-0.989097, 0, 0, 0.989097, 60.964049, 25.42875)"/>
<path fill="none" stroke-width="0.79701" stroke-linecap="butt" stroke-linejoin="miter" stroke="rgb(100%, 0%, 0%)" stroke-opacity="1" stroke-miterlimit="10" d="M 68.031454 34.016661 L 41.61453 34.016661 " transform="matrix(0.989097, 0, 0, -0.989097, 9.429028, 52.345003)"/>
<path fill="none" stroke-width="0.79701" stroke-linecap="round" stroke-linejoin="round" stroke="rgb(100%, 0%, 0%)" stroke-opacity="1" stroke-miterlimit="10" d="M -2.549223 3.111475 C -2.083205 1.243452 -1.044537 0.362756 -0.00191931 -0.000580535 C -1.044537 -0.363917 -2.083205 -1.244613 -2.549223 -3.112636 " transform="matrix(-0.989097, 0, 0, 0.989097, 50.19732, 18.699793)"/>
<g fill="rgb(100%, 0%, 0%)" fill-opacity="1">
<use xlink:href="#glyph-0-0" x="69.188304" y="60.068863"/>
</g>
<g fill="rgb(100%, 0%, 0%)" fill-opacity="1">
<use xlink:href="#glyph-1-0" x="74.819234" y="61.546575"/>
<use xlink:href="#glyph-1-0" x="79.287607" y="61.546575"/>
</g>
<path fill="none" stroke-width="0.79701" stroke-linecap="butt" stroke-linejoin="miter" stroke="rgb(0%, 0%, 100%)" stroke-opacity="1" stroke-miterlimit="10" d="M 68.031454 0.00126701 L 68.031454 6.004216 " transform="matrix(0.989097, 0, 0, -0.989097, 9.429028, 52.345003)"/>
<path fill="none" stroke-width="0.79701" stroke-linecap="round" stroke-linejoin="round" stroke="rgb(0%, 0%, 100%)" stroke-opacity="1" stroke-miterlimit="10" d="M -2.548798 3.112771 C -2.08278 1.244748 -1.048061 0.364052 -0.00149402 0.000715742 C -1.048061 -0.362621 -2.08278 -1.243316 -2.548798 -3.111339 " transform="matrix(0, -0.989097, -0.989097, 0, 76.719458, 46.010241)"/>
<path fill="none" stroke-width="0.79701" stroke-linecap="butt" stroke-linejoin="miter" stroke="rgb(0%, 0%, 100%)" stroke-opacity="1" stroke-miterlimit="10" d="M 68.031454 8.504128 L 68.031454 14.511026 " transform="matrix(0.989097, 0, 0, -0.989097, 9.429028, 52.345003)"/>
<path fill="none" stroke-width="0.79701" stroke-linecap="round" stroke-linejoin="round" stroke="rgb(0%, 0%, 100%)" stroke-opacity="1" stroke-miterlimit="10" d="M -2.549947 3.112771 C -2.083929 1.244748 -1.04526 0.364052 0.00130634 0.000715742 C -1.04526 -0.362621 -2.083929 -1.243316 -2.549947 -3.111339 " transform="matrix(0, -0.989097, -0.989097, 0, 76.719458, 37.598948)"/>
<path fill="none" stroke-width="0.79701" stroke-linecap="butt" stroke-linejoin="miter" stroke="rgb(0%, 0%, 100%)" stroke-opacity="1" stroke-miterlimit="10" d="M 68.031454 17.006989 L 68.031454 23.013887 " transform="matrix(0.989097, 0, 0, -0.989097, 9.429028, 52.345003)"/>
<path fill="none" stroke-width="0.79701" stroke-linecap="round" stroke-linejoin="round" stroke="rgb(0%, 0%, 100%)" stroke-opacity="1" stroke-miterlimit="10" d="M -2.551096 3.112771 C -2.085077 1.244748 -1.046409 0.364052 0.000157395 0.000715742 C -1.046409 -0.362621 -2.085077 -1.243316 -2.551096 -3.111339 " transform="matrix(0, -0.989097, -0.989097, 0, 76.719458, 29.187656)"/>
<path fill="none" stroke-width="0.79701" stroke-linecap="butt" stroke-linejoin="miter" stroke="rgb(0%, 0%, 100%)" stroke-opacity="1" stroke-miterlimit="10" d="M 68.031454 25.513799 L 68.031454 31.516748 " transform="matrix(0.989097, 0, 0, -0.989097, 9.429028, 52.345003)"/>
<path fill="none" stroke-width="0.79701" stroke-linecap="round" stroke-linejoin="round" stroke="rgb(0%, 0%, 100%)" stroke-opacity="1" stroke-miterlimit="10" d="M -2.552285 3.112771 C -2.086266 1.244748 -1.047598 0.364052 -0.00103155 0.000715742 C -1.047598 -0.362621 -2.086266 -1.243316 -2.552285 -3.111339 " transform="matrix(0, -0.989097, -0.989097, 0, 76.719458, 20.776323)"/>
<g fill="rgb(0%, 0%, 100%)" fill-opacity="1">
<use xlink:href="#glyph-0-0" x="80.199923" y="19.411033"/>
</g>
<g fill="rgb(0%, 0%, 100%)" fill-opacity="1">
<use xlink:href="#glyph-1-0" x="85.830853" y="20.889733"/>
<use xlink:href="#glyph-1-1" x="90.299226" y="20.889733"/>
</g>
<path fill="none" stroke-width="0.3985" stroke-linecap="butt" stroke-linejoin="miter" stroke="rgb(0%, 0%, 0%)" stroke-opacity="1" stroke-miterlimit="10" d="M 34.016061 0.400147 L 34.016061 33.61778 " transform="matrix(0.989097, 0, 0, -0.989097, 9.429028, 52.345003)"/>
<path fill="none" stroke-width="0.3985" stroke-linecap="round" stroke-linejoin="round" stroke="rgb(0%, 0%, 0%)" stroke-opacity="1" stroke-miterlimit="10" d="M -2.072869 2.389312 C -1.693736 0.955713 -0.848584 0.280382 0.00051757 -0.0000192684 C -0.848584 -0.28042 -1.693736 -0.955752 -2.072869 -2.389351 " transform="matrix(0, 0.989097, 0.989097, 0, 43.074238, 52.147926)"/>
<path fill="none" stroke-width="0.3985" stroke-linecap="round" stroke-linejoin="round" stroke="rgb(0%, 0%, 0%)" stroke-opacity="1" stroke-miterlimit="10" d="M -2.071012 2.389351 C -1.691878 0.955752 -0.850676 0.28042 -0.0015742 0.0000192684 C -0.850676 -0.280382 -1.691878 -0.955713 -2.071012 -2.389312 " transform="matrix(0, -0.989097, -0.989097, 0, 43.074238, 18.89688)"/>
<g fill="rgb(0%, 0%, 0%)" fill-opacity="1">
<use xlink:href="#glyph-0-1" x="46.554792" y="45.672553"/>
</g>
<path fill="none" stroke-width="0.79701" stroke-linecap="butt" stroke-linejoin="miter" stroke="rgb(0%, 0%, 0%)" stroke-opacity="1" stroke-miterlimit="10" d="M 0.000667205 17.006989 L 23.013287 17.006989 " transform="matrix(0.989097, 0, 0, -0.989097, 9.429028, 52.345003)"/>
<path fill="none" stroke-width="0.79701" stroke-linecap="round" stroke-linejoin="round" stroke="rgb(0%, 0%, 0%)" stroke-opacity="1" stroke-miterlimit="10" d="M -2.551696 3.111034 C -2.085677 1.243011 -1.047009 0.362315 -0.000442409 -0.00102088 C -1.047009 -0.364357 -2.085677 -1.245053 -2.551696 -3.109127 " transform="matrix(0.989097, 0, 0, -0.989097, 32.586375, 35.522428)"/>
<g fill="rgb(0%, 0%, 0%)" fill-opacity="1">
<use xlink:href="#glyph-0-2" x="30.164462" y="43.443128"/>
</g>
<path fill="none" stroke-width="0.79701" stroke-linecap="butt" stroke-linejoin="miter" stroke="rgb(0%, 0%, 0%)" stroke-opacity="1" stroke-miterlimit="10" d="M 0.000667205 17.006989 L 0.000667205 40.023559 " transform="matrix(0.989097, 0, 0, -0.989097, 9.429028, 52.345003)"/>
<path fill="none" stroke-width="0.79701" stroke-linecap="round" stroke-linejoin="round" stroke="rgb(0%, 0%, 0%)" stroke-opacity="1" stroke-miterlimit="10" d="M -2.549484 3.111388 C -2.083466 1.243365 -1.044798 0.362669 0.00176881 -0.000667205 C -1.044798 -0.364004 -2.083466 -1.244699 -2.549484 -3.112722 " transform="matrix(0, -0.989097, -0.989097, 0, 9.429028, 12.365031)"/>
<g fill="rgb(0%, 0%, 0%)" fill-opacity="1">
<use xlink:href="#glyph-0-3" x="13.10748" y="13.134222"/>
</g>
</svg>
