<?xml version="1.0" encoding="UTF-8"?>
<svg xmlns="http://www.w3.org/2000/svg" xmlns:xlink="http://www.w3.org/1999/xlink" width="230.956" height="67.764" viewBox="0 0 230.956 67.764">
<defs>
<g>
<g id="glyph-0-0">
<path d="M 3.71875 -6.265625 C 3.8125 -6.34375 3.890625 -6.453125 3.890625 -6.5625 C 3.890625 -6.75 3.703125 -6.921875 3.53125 -6.921875 C 3.390625 -6.921875 3.28125 -6.8125 3.234375 -6.75 L 2.046875 -5.234375 L 2.21875 -5.0625 Z M 3.71875 -6.265625 "/>
</g>
<g id="glyph-0-1">
<path d="M 1.34375 -0.78125 C 1.34375 -0.421875 1.328125 -0.3125 0.5625 -0.3125 L 0.328125 -0.3125 L 0.328125 0 L 6.046875 0 L 6.46875 -2.5625 L 6.21875 -2.5625 C 5.96875 -1.03125 5.75 -0.3125 4.03125 -0.3125 L 2.71875 -0.3125 C 2.25 -0.3125 2.234375 -0.375 2.234375 -0.703125 L 2.234375 -3.359375 L 3.125 -3.359375 C 4.09375 -3.359375 4.203125 -3.03125 4.203125 -2.1875 L 4.4375 -2.1875 L 4.4375 -4.828125 L 4.203125 -4.828125 C 4.203125 -3.96875 4.09375 -3.65625 3.125 -3.65625 L 2.234375 -3.65625 L 2.234375 -6.046875 C 2.234375 -6.375 2.25 -6.4375 2.71875 -6.4375 L 4 -6.4375 C 5.515625 -6.4375 5.78125 -5.890625 5.9375 -4.515625 L 6.1875 -4.515625 L 5.90625 -6.75 L 0.328125 -6.75 L 0.328125 -6.4375 L 0.5625 -6.4375 C 1.328125 -6.4375 1.34375 -6.328125 1.34375 -5.96875 Z M 1.34375 -0.78125 "/>
</g>
<g id="glyph-0-2">
<path d="M 1.75 -6.890625 L 0.328125 -6.78125 L 0.328125 -6.46875 C 1.015625 -6.46875 1.09375 -6.40625 1.09375 -5.90625 L 1.09375 -0.75 C 1.09375 -0.3125 0.984375 -0.3125 0.328125 -0.3125 L 0.328125 0 C 0.65625 -0.015625 1.1875 -0.03125 1.421875 -0.03125 C 1.671875 -0.03125 2.15625 -0.015625 2.53125 0 L 2.53125 -0.3125 C 1.859375 -0.3125 1.75 -0.3125 1.75 -0.75 Z M 1.75 -6.890625 "/>
</g>
<g id="glyph-0-3">
<path d="M 1.109375 -2.5 C 1.171875 -3.984375 2 -4.234375 2.34375 -4.234375 C 3.359375 -4.234375 3.46875 -2.890625 3.46875 -2.5 Z M 1.09375 -2.296875 L 3.875 -2.296875 C 4.09375 -2.296875 4.125 -2.296875 4.125 -2.5 C 4.125 -3.484375 3.578125 -4.4375 2.34375 -4.4375 C 1.1875 -4.4375 0.28125 -3.421875 0.28125 -2.1875 C 0.28125 -0.859375 1.3125 0.109375 2.453125 0.109375 C 3.671875 0.109375 4.125 -0.984375 4.125 -1.1875 C 4.125 -1.28125 4.03125 -1.296875 3.984375 -1.296875 C 3.90625 -1.296875 3.875 -1.234375 3.859375 -1.15625 C 3.515625 -0.140625 2.625 -0.140625 2.515625 -0.140625 C 2.03125 -0.140625 1.625 -0.4375 1.40625 -0.796875 C 1.09375 -1.28125 1.09375 -1.9375 1.09375 -2.296875 Z M 1.09375 -2.296875 "/>
</g>
<g id="glyph-0-4">
<path d="M 1.09375 -3.40625 L 1.09375 -0.75 C 1.09375 -0.3125 0.984375 -0.3125 0.3125 -0.3125 L 0.3125 0 C 0.671875 -0.015625 1.171875 -0.03125 1.4375 -0.03125 C 1.703125 -0.03125 2.21875 -0.015625 2.546875 0 L 2.546875 -0.3125 C 1.890625 -0.3125 1.78125 -0.3125 1.78125 -0.75 L 1.78125 -2.578125 C 1.78125 -3.609375 2.484375 -4.171875 3.109375 -4.171875 C 3.734375 -4.171875 3.84375 -3.625 3.84375 -3.0625 L 3.84375 -0.75 C 3.84375 -0.3125 3.734375 -0.3125 3.078125 -0.3125 L 3.078125 0 C 3.421875 -0.015625 3.921875 -0.03125 4.203125 -0.03125 C 4.453125 -0.03125 4.96875 -0.015625 5.3125 0 L 5.3125 -0.3125 C 4.640625 -0.3125 4.53125 -0.3125 4.53125 -0.75 L 4.53125 -2.578125 C 4.53125 -3.609375 5.234375 -4.171875 5.875 -4.171875 C 6.5 -4.171875 6.609375 -3.625 6.609375 -3.0625 L 6.609375 -0.75 C 6.609375 -0.3125 6.5 -0.3125 5.828125 -0.3125 L 5.828125 0 C 6.1875 -0.015625 6.6875 -0.03125 6.953125 -0.03125 C 7.21875 -0.03125 7.734375 -0.015625 8.0625 0 L 8.0625 -0.3125 C 7.546875 -0.3125 7.296875 -0.3125 7.296875 -0.609375 L 7.296875 -2.5 C 7.296875 -3.359375 7.296875 -3.65625 6.984375 -4.015625 C 6.84375 -4.1875 6.515625 -4.390625 5.9375 -4.390625 C 5.109375 -4.390625 4.671875 -3.796875 4.5 -3.40625 C 4.359375 -4.28125 3.625 -4.390625 3.1875 -4.390625 C 2.453125 -4.390625 2 -3.953125 1.71875 -3.34375 L 1.71875 -4.390625 L 0.3125 -4.28125 L 0.3125 -3.96875 C 1.015625 -3.96875 1.09375 -3.90625 1.09375 -3.40625 Z M 1.09375 -3.40625 "/>
</g>
<g id="glyph-0-5">
<path d="M 1.09375 -3.40625 L 1.09375 -0.75 C 1.09375 -0.3125 0.984375 -0.3125 0.3125 -0.3125 L 0.3125 0 C 0.671875 -0.015625 1.171875 -0.03125 1.4375 -0.03125 C 1.703125 -0.03125 2.21875 -0.015625 2.546875 0 L 2.546875 -0.3125 C 1.890625 -0.3125 1.78125 -0.3125 1.78125 -0.75 L 1.78125 -2.578125 C 1.78125 -3.609375 2.484375 -4.171875 3.109375 -4.171875 C 3.734375 -4.171875 3.84375 -3.625 3.84375 -3.0625 L 3.84375 -0.75 C 3.84375 -0.3125 3.734375 -0.3125 3.078125 -0.3125 L 3.078125 0 C 3.421875 -0.015625 3.921875 -0.03125 4.203125 -0.03125 C 4.453125 -0.03125 4.96875 -0.015625 5.3125 0 L 5.3125 -0.3125 C 4.796875 -0.3125 4.546875 -0.3125 4.53125 -0.609375 L 4.53125 -2.5 C 4.53125 -3.359375 4.53125 -3.65625 4.234375 -4.015625 C 4.09375 -4.1875 3.765625 -4.390625 3.1875 -4.390625 C 2.453125 -4.390625 2 -3.953125 1.71875 -3.34375 L 1.71875 -4.390625 L 0.3125 -4.28125 L 0.3125 -3.96875 C 1.015625 -3.96875 1.09375 -3.90625 1.09375 -3.40625 Z M 1.09375 -3.40625 "/>
</g>
<g id="glyph-0-6">
<path d="M 1.71875 -3.96875 L 3.140625 -3.96875 L 3.140625 -4.28125 L 1.71875 -4.28125 L 1.71875 -6.109375 L 1.46875 -6.109375 C 1.453125 -5.28125 1.15625 -4.234375 0.1875 -4.1875 L 0.1875 -3.96875 L 1.03125 -3.96875 L 1.03125 -1.234375 C 1.03125 -0.015625 1.953125 0.109375 2.3125 0.109375 C 3.015625 0.109375 3.296875 -0.59375 3.296875 -1.234375 L 3.296875 -1.796875 L 3.046875 -1.796875 L 3.046875 -1.25 C 3.046875 -0.515625 2.75 -0.140625 2.375 -0.140625 C 1.71875 -0.140625 1.71875 -1.046875 1.71875 -1.203125 Z M 1.71875 -3.96875 "/>
</g>
<g id="glyph-0-7">
<path d="M 2.921875 -6.34375 C 2.921875 -6.59375 2.921875 -6.609375 2.6875 -6.609375 C 2.078125 -5.96875 1.203125 -5.96875 0.890625 -5.96875 L 0.890625 -5.671875 C 1.078125 -5.671875 1.671875 -5.671875 2.1875 -5.921875 L 2.1875 -0.78125 C 2.1875 -0.421875 2.15625 -0.3125 1.265625 -0.3125 L 0.9375 -0.3125 L 0.9375 0 C 1.296875 -0.03125 2.15625 -0.03125 2.546875 -0.03125 C 2.953125 -0.03125 3.8125 -0.03125 4.15625 0 L 4.15625 -0.3125 L 3.84375 -0.3125 C 2.953125 -0.3125 2.921875 -0.421875 2.921875 -0.78125 Z M 2.921875 -6.34375 "/>
</g>
<g id="glyph-0-8">
<path d="M 1.265625 -0.765625 L 2.3125 -1.78125 C 3.859375 -3.15625 4.453125 -3.6875 4.453125 -4.6875 C 4.453125 -5.8125 3.5625 -6.609375 2.34375 -6.609375 C 1.234375 -6.609375 0.5 -5.6875 0.5 -4.8125 C 0.5 -4.25 0.984375 -4.25 1.015625 -4.25 C 1.1875 -4.25 1.53125 -4.375 1.53125 -4.78125 C 1.53125 -5.046875 1.359375 -5.296875 1.015625 -5.296875 C 0.9375 -5.296875 0.90625 -5.296875 0.890625 -5.28125 C 1.109375 -5.9375 1.640625 -6.296875 2.21875 -6.296875 C 3.125 -6.296875 3.546875 -5.5 3.546875 -4.6875 C 3.546875 -3.890625 3.0625 -3.109375 2.515625 -2.484375 L 0.609375 -0.359375 C 0.5 -0.265625 0.5 -0.234375 0.5 0 L 4.171875 0 L 4.453125 -1.71875 L 4.203125 -1.71875 C 4.15625 -1.421875 4.09375 -0.984375 3.984375 -0.84375 C 3.921875 -0.765625 3.265625 -0.765625 3.046875 -0.765625 Z M 1.265625 -0.765625 "/>
</g>
<g id="glyph-1-0">
<path d="M 0.453125 1.203125 C 0.359375 1.546875 0.34375 1.625 -0.09375 1.625 C -0.203125 1.625 -0.3125 1.625 -0.3125 1.8125 C -0.3125 1.890625 -0.265625 1.921875 -0.1875 1.921875 C 0.078125 1.921875 0.359375 1.890625 0.640625 1.890625 C 0.96875 1.890625 1.3125 1.921875 1.625 1.921875 C 1.671875 1.921875 1.8125 1.921875 1.8125 1.71875 C 1.8125 1.625 1.703125 1.625 1.5625 1.625 C 1.078125 1.625 1.078125 1.546875 1.078125 1.453125 C 1.078125 1.34375 1.484375 -0.28125 1.5625 -0.53125 C 1.6875 -0.234375 1.96875 0.109375 2.46875 0.109375 C 3.625 0.109375 4.859375 -1.34375 4.859375 -2.796875 C 4.859375 -3.734375 4.296875 -4.390625 3.546875 -4.390625 C 3.046875 -4.390625 2.5625 -4.03125 2.25 -3.640625 C 2.140625 -4.171875 1.71875 -4.390625 1.34375 -4.390625 C 0.890625 -4.390625 0.703125 -4 0.609375 -3.8125 C 0.4375 -3.484375 0.3125 -2.890625 0.3125 -2.859375 C 0.3125 -2.765625 0.40625 -2.765625 0.421875 -2.765625 C 0.53125 -2.765625 0.53125 -2.765625 0.59375 -2.984375 C 0.765625 -3.6875 0.96875 -4.171875 1.3125 -4.171875 C 1.484375 -4.171875 1.625 -4.09375 1.625 -3.703125 C 1.625 -3.484375 1.59375 -3.375 1.5625 -3.203125 Z M 2.1875 -3.09375 C 2.265625 -3.359375 2.53125 -3.640625 2.703125 -3.796875 C 3.0625 -4.09375 3.34375 -4.171875 3.515625 -4.171875 C 3.90625 -4.171875 4.140625 -3.8125 4.140625 -3.234375 C 4.140625 -2.65625 3.8125 -1.515625 3.640625 -1.125 C 3.296875 -0.4375 2.828125 -0.109375 2.453125 -0.109375 C 1.8125 -0.109375 1.671875 -0.9375 1.671875 -0.984375 C 1.671875 -1.015625 1.671875 -1.03125 1.703125 -1.15625 Z M 2.1875 -3.09375 "/>
</g>
<g id="glyph-1-1">
<path d="M 3 -3.21875 L 3.96875 -3.21875 C 4.71875 -3.21875 4.796875 -3.0625 4.796875 -2.78125 C 4.796875 -2.703125 4.796875 -2.59375 4.71875 -2.296875 C 4.703125 -2.25 4.6875 -2.203125 4.6875 -2.1875 C 4.6875 -2.109375 4.75 -2.0625 4.8125 -2.0625 C 4.90625 -2.0625 4.90625 -2.09375 4.953125 -2.265625 L 5.5 -4.421875 C 5.53125 -4.53125 5.53125 -4.546875 5.53125 -4.578125 C 5.53125 -4.609375 5.515625 -4.6875 5.421875 -4.6875 C 5.3125 -4.6875 5.3125 -4.640625 5.265625 -4.484375 C 5.0625 -3.703125 4.828125 -3.53125 3.984375 -3.53125 L 3.078125 -3.53125 L 3.71875 -6.046875 C 3.8125 -6.40625 3.8125 -6.4375 4.25 -6.4375 L 5.5625 -6.4375 C 6.78125 -6.4375 7.015625 -6.109375 7.015625 -5.34375 C 7.015625 -5.125 7.015625 -5.078125 6.984375 -4.8125 C 6.96875 -4.6875 6.96875 -4.65625 6.96875 -4.640625 C 6.96875 -4.578125 7 -4.515625 7.078125 -4.515625 C 7.1875 -4.515625 7.203125 -4.578125 7.21875 -4.765625 L 7.421875 -6.484375 C 7.453125 -6.75 7.40625 -6.75 7.15625 -6.75 L 2.296875 -6.75 C 2.09375 -6.75 2 -6.75 2 -6.546875 C 2 -6.4375 2.078125 -6.4375 2.265625 -6.4375 C 2.640625 -6.4375 2.921875 -6.4375 2.921875 -6.265625 C 2.921875 -6.21875 2.921875 -6.203125 2.875 -6.015625 L 1.5625 -0.78125 C 1.453125 -0.390625 1.4375 -0.3125 0.65625 -0.3125 C 0.484375 -0.3125 0.375 -0.3125 0.375 -0.125 C 0.375 0 0.5 0 0.53125 0 C 0.8125 0 1.546875 -0.03125 1.828125 -0.03125 C 2.15625 -0.03125 2.984375 0 3.3125 0 C 3.40625 0 3.515625 0 3.515625 -0.1875 C 3.515625 -0.265625 3.46875 -0.28125 3.46875 -0.296875 C 3.4375 -0.3125 3.40625 -0.3125 3.1875 -0.3125 C 2.96875 -0.3125 2.921875 -0.3125 2.671875 -0.328125 C 2.375 -0.359375 2.34375 -0.390625 2.34375 -0.53125 C 2.34375 -0.546875 2.34375 -0.609375 2.390625 -0.75 Z M 3 -3.21875 "/>
</g>
<g id="glyph-1-2">
<path d="M 3.703125 -6 C 3.796875 -6.359375 3.828125 -6.46875 4.765625 -6.46875 C 5.0625 -6.46875 5.140625 -6.46875 5.140625 -6.65625 C 5.140625 -6.78125 5.03125 -6.78125 4.984375 -6.78125 C 4.65625 -6.78125 3.84375 -6.75 3.515625 -6.75 C 3.21875 -6.75 2.484375 -6.78125 2.1875 -6.78125 C 2.125 -6.78125 2 -6.78125 2 -6.578125 C 2 -6.46875 2.09375 -6.46875 2.28125 -6.46875 C 2.296875 -6.46875 2.484375 -6.46875 2.65625 -6.453125 C 2.84375 -6.421875 2.921875 -6.421875 2.921875 -6.296875 C 2.921875 -6.25 2.921875 -6.21875 2.890625 -6.109375 L 1.5625 -0.78125 C 1.453125 -0.390625 1.4375 -0.3125 0.65625 -0.3125 C 0.484375 -0.3125 0.390625 -0.3125 0.390625 -0.109375 C 0.390625 0 0.46875 0 0.65625 0 L 5.25 0 C 5.484375 0 5.5 0 5.5625 -0.171875 L 6.34375 -2.3125 C 6.375 -2.421875 6.375 -2.4375 6.375 -2.453125 C 6.375 -2.484375 6.34375 -2.5625 6.265625 -2.5625 C 6.171875 -2.5625 6.15625 -2.515625 6.09375 -2.34375 C 5.75 -1.4375 5.3125 -0.3125 3.609375 -0.3125 L 2.671875 -0.3125 C 2.53125 -0.3125 2.515625 -0.3125 2.453125 -0.3125 C 2.34375 -0.328125 2.328125 -0.34375 2.328125 -0.421875 C 2.328125 -0.453125 2.328125 -0.46875 2.375 -0.640625 Z M 3.703125 -6 "/>
</g>
<g id="glyph-2-0">
<path d="M 1.5625 -1.578125 C 1.75 -1.578125 2.296875 -1.59375 2.671875 -1.734375 C 3.1875 -1.90625 3.28125 -2.25 3.28125 -2.453125 C 3.28125 -2.84375 2.90625 -3.0625 2.421875 -3.0625 C 1.59375 -3.0625 0.46875 -2.421875 0.46875 -1.234375 C 0.46875 -0.53125 0.90625 0.0625 1.71875 0.0625 C 2.890625 0.0625 3.4375 -0.625 3.4375 -0.71875 C 3.4375 -0.765625 3.375 -0.828125 3.328125 -0.828125 C 3.28125 -0.828125 3.265625 -0.828125 3.21875 -0.765625 C 2.671875 -0.125 1.859375 -0.125 1.734375 -0.125 C 1.3125 -0.125 1.03125 -0.40625 1.03125 -0.96875 C 1.03125 -1.0625 1.03125 -1.203125 1.125 -1.578125 Z M 1.171875 -1.78125 C 1.453125 -2.78125 2.234375 -2.875 2.421875 -2.875 C 2.734375 -2.875 2.984375 -2.71875 2.984375 -2.453125 C 2.984375 -1.78125 1.8125 -1.78125 1.515625 -1.78125 Z M 1.171875 -1.78125 "/>
</g>
</g>
</defs>
<path fill="none" stroke-width="1.99255" stroke-linecap="butt" stroke-linejoin="miter" stroke="rgb(50%, 50%, 50%)" stroke-opacity="1" stroke-miterlimit="10" d="M 0.00135203 -0.00175714 L 106.303878 -0.00175714 " transform="matrix(0.996529, 0, 0, -0.996529, 9.525996, 29.009968)"/>
<g fill="rgb(50%, 50%, 50%)" fill-opacity="1">
<use xlink:href="#glyph-0-0" x="41.395007" y="40.206972"/>
</g>
<g fill="rgb(50%, 50%, 50%)" fill-opacity="1">
<use xlink:href="#glyph-0-1" x="40.499127" y="42.716233"/>
<use xlink:href="#glyph-0-2" x="47.25614" y="42.716233"/>
</g>
<g fill="rgb(50%, 50%, 50%)" fill-opacity="1">
<use xlink:href="#glyph-0-0" x="49.736161" y="42.716233"/>
</g>
<g fill="rgb(50%, 50%, 50%)" fill-opacity="1">
<use xlink:href="#glyph-0-3" x="50.014145" y="42.716233"/>
<use xlink:href="#glyph-0-4" x="54.426159" y="42.716233"/>
<use xlink:href="#glyph-0-3" x="62.699181" y="42.716233"/>
<use xlink:href="#glyph-0-5" x="67.111195" y="42.716233"/>
</g>
<g fill="rgb(50%, 50%, 50%)" fill-opacity="1">
<use xlink:href="#glyph-0-6" x="72.349221" y="42.716233"/>
</g>
<g fill="rgb(50%, 50%, 50%)" fill-opacity="1">
<use xlink:href="#glyph-0-7" x="79.526189" y="42.716233"/>
</g>
<path fill="none" stroke-width="1.99255" stroke-linecap="butt" stroke-linejoin="miter" stroke="rgb(50%, 50%, 50%)" stroke-opacity="1" stroke-miterlimit="10" d="M 106.303878 -0.00175714 L 212.606404 -0.00175714 " transform="matrix(0.996529, 0, 0, -0.996529, 9.525996, 29.009968)"/>
<g fill="rgb(50%, 50%, 50%)" fill-opacity="1">
<use xlink:href="#glyph-0-0" x="147.329073" y="40.206972"/>
</g>
<g fill="rgb(50%, 50%, 50%)" fill-opacity="1">
<use xlink:href="#glyph-0-1" x="146.432197" y="42.716233"/>
<use xlink:href="#glyph-0-2" x="153.18921" y="42.716233"/>
</g>
<g fill="rgb(50%, 50%, 50%)" fill-opacity="1">
<use xlink:href="#glyph-0-0" x="155.66923" y="42.716233"/>
</g>
<g fill="rgb(50%, 50%, 50%)" fill-opacity="1">
<use xlink:href="#glyph-0-3" x="155.947215" y="42.716233"/>
<use xlink:href="#glyph-0-4" x="160.359229" y="42.716233"/>
<use xlink:href="#glyph-0-3" x="168.632251" y="42.716233"/>
<use xlink:href="#glyph-0-5" x="173.044265" y="42.716233"/>
</g>
<g fill="rgb(50%, 50%, 50%)" fill-opacity="1">
<use xlink:href="#glyph-0-6" x="178.28229" y="42.716233"/>
</g>
<g fill="rgb(50%, 50%, 50%)" fill-opacity="1">
<use xlink:href="#glyph-0-8" x="185.459259" y="42.716233"/>
</g>
<path fill-rule="nonzero" fill="rgb(0%, 0%, 0%)" fill-opacity="1" stroke-width="0.3985" stroke-linecap="butt" stroke-linejoin="miter" stroke="rgb(0%, 0%, 0%)" stroke-opacity="1" stroke-miterlimit="10" d="M 2.243509 -0.00175714 C 2.243509 1.236917 1.236106 2.240399 0.00135203 2.240399 C -1.237322 2.240399 -2.240805 1.236917 -2.240805 -0.00175714 C -2.240805 -1.236511 -1.237322 -2.239994 0.00135203 -2.239994 C 1.236106 -2.239994 2.243509 -1.236511 2.243509 -0.00175714 Z M 2.243509 -0.00175714 " transform="matrix(0.996529, 0, 0, -0.996529, 9.525996, 29.009968)"/>
<path fill-rule="nonzero" fill="rgb(0%, 0%, 0%)" fill-opacity="1" stroke-width="0.3985" stroke-linecap="butt" stroke-linejoin="miter" stroke="rgb(0%, 0%, 0%)" stroke-opacity="1" stroke-miterlimit="10" d="M 108.546035 -0.00175714 C 108.546035 1.236917 107.542552 2.240399 106.303878 2.240399 C 105.065204 2.240399 104.061721 1.236917 104.061721 -0.00175714 C 104.061721 -1.236511 105.065204 -2.239994 106.303878 -2.239994 C 107.542552 -2.239994 108.546035 -1.236511 108.546035 -0.00175714 Z M 108.546035 -0.00175714 " transform="matrix(0.996529, 0, 0, -0.996529, 9.525996, 29.009968)"/>
<path fill-rule="nonzero" fill="rgb(0%, 0%, 0%)" fill-opacity="1" stroke-width="0.3985" stroke-linecap="butt" stroke-linejoin="miter" stroke="rgb(0%, 0%, 0%)" stroke-opacity="1" stroke-miterlimit="10" d="M 214.848561 -0.00175714 C 214.848561 1.236917 213.845078 2.240399 212.606404 2.240399 C 211.36773 2.240399 210.364248 1.236917 210.364248 -0.00175714 C 210.364248 -1.236511 211.36773 -2.239994 212.606404 -2.239994 C 213.845078 -2.239994 214.848561 -1.236511 214.848561 -0.00175714 Z M 214.848561 -0.00175714 " transform="matrix(0.996529, 0, 0, -0.996529, 9.525996, 29.009968)"/>
<path fill="none" stroke-width="0.79701" stroke-linecap="butt" stroke-linejoin="miter" stroke="rgb(100%, 0%, 0%)" stroke-opacity="1" stroke-miterlimit="10" d="M 0.00135203 12.757368 L 0.00135203 0.797893 " transform="matrix(0.996529, 0, 0, -0.996529, 9.525996, 29.009968)"/>
<path fill="none" stroke-width="0.79701" stroke-linecap="round" stroke-linejoin="round" stroke="rgb(100%, 0%, 0%)" stroke-opacity="1" stroke-miterlimit="10" d="M -2.551393 3.109796 C -2.08493 1.243946 -1.046169 0.361979 0.000432014 0.00135203 C -1.046169 -0.363194 -2.08493 -1.245162 -2.551393 -3.111012 " transform="matrix(0, 0.996529, 0.996529, 0, 9.525996, 28.612851)"/>
<path fill="none" stroke-width="0.79701" stroke-linecap="butt" stroke-linejoin="miter" stroke="rgb(100%, 0%, 0%)" stroke-opacity="1" stroke-miterlimit="10" d="M 13.285738 12.757368 L 13.285738 0.797893 " transform="matrix(0.996529, 0, 0, -0.996529, 9.525996, 29.009968)"/>
<path fill="none" stroke-width="0.79701" stroke-linecap="round" stroke-linejoin="round" stroke="rgb(100%, 0%, 0%)" stroke-opacity="1" stroke-miterlimit="10" d="M -2.551393 3.110552 C -2.08493 1.244702 -1.046169 0.362734 0.000432014 -0.00181209 C -1.046169 -0.362439 -2.08493 -1.244406 -2.551393 -3.110256 " transform="matrix(0, 0.996529, 0.996529, 0, 22.767431, 28.612851)"/>
<path fill="none" stroke-width="0.79701" stroke-linecap="butt" stroke-linejoin="miter" stroke="rgb(100%, 0%, 0%)" stroke-opacity="1" stroke-miterlimit="10" d="M 26.574044 12.757368 L 26.574044 0.797893 " transform="matrix(0.996529, 0, 0, -0.996529, 9.525996, 29.009968)"/>
<path fill="none" stroke-width="0.79701" stroke-linecap="round" stroke-linejoin="round" stroke="rgb(100%, 0%, 0%)" stroke-opacity="1" stroke-miterlimit="10" d="M -2.551393 3.111288 C -2.08493 1.245437 -1.046169 0.36347 0.000432014 -0.00107635 C -1.046169 -0.361703 -2.08493 -1.24367 -2.551393 -3.109521 " transform="matrix(0, 0.996529, 0.996529, 0, 36.008885, 28.612851)"/>
<path fill="none" stroke-width="0.79701" stroke-linecap="butt" stroke-linejoin="miter" stroke="rgb(100%, 0%, 0%)" stroke-opacity="1" stroke-miterlimit="10" d="M 39.862349 12.757368 L 39.862349 0.797893 " transform="matrix(0.996529, 0, 0, -0.996529, 9.525996, 29.009968)"/>
<path fill="none" stroke-width="0.79701" stroke-linecap="round" stroke-linejoin="round" stroke="rgb(100%, 0%, 0%)" stroke-opacity="1" stroke-miterlimit="10" d="M -2.551393 3.112024 C -2.08493 1.246173 -1.046169 0.364206 0.000432014 -0.000340611 C -1.046169 -0.364887 -2.08493 -1.242934 -2.551393 -3.112705 " transform="matrix(0, 0.996529, 0.996529, 0, 49.250339, 28.612851)"/>
<path fill="none" stroke-width="0.79701" stroke-linecap="butt" stroke-linejoin="miter" stroke="rgb(100%, 0%, 0%)" stroke-opacity="1" stroke-miterlimit="10" d="M 53.150655 12.757368 L 53.150655 0.797893 " transform="matrix(0.996529, 0, 0, -0.996529, 9.525996, 29.009968)"/>
<path fill="none" stroke-width="0.79701" stroke-linecap="round" stroke-linejoin="round" stroke="rgb(100%, 0%, 0%)" stroke-opacity="1" stroke-miterlimit="10" d="M -2.551393 3.112779 C -2.08493 1.243009 -1.046169 0.361042 0.000432014 0.000415127 C -1.046169 -0.364131 -2.08493 -1.246099 -2.551393 -3.111949 " transform="matrix(0, 0.996529, 0.996529, 0, 62.491774, 28.612851)"/>
<path fill="none" stroke-width="0.79701" stroke-linecap="butt" stroke-linejoin="miter" stroke="rgb(100%, 0%, 0%)" stroke-opacity="1" stroke-miterlimit="10" d="M 66.438961 12.757368 L 66.438961 0.797893 " transform="matrix(0.996529, 0, 0, -0.996529, 9.525996, 29.009968)"/>
<path fill="none" stroke-width="0.79701" stroke-linecap="round" stroke-linejoin="round" stroke="rgb(100%, 0%, 0%)" stroke-opacity="1" stroke-miterlimit="10" d="M -2.551393 3.109605 C -2.08493 1.243755 -1.046169 0.361787 0.000432014 0.00116086 C -1.046169 -0.363386 -2.08493 -1.245353 -2.551393 -3.111203 " transform="matrix(0, 0.996529, 0.996529, 0, 75.733218, 28.612851)"/>
<path fill="none" stroke-width="0.79701" stroke-linecap="butt" stroke-linejoin="miter" stroke="rgb(100%, 0%, 0%)" stroke-opacity="1" stroke-miterlimit="10" d="M 79.727267 12.757368 L 79.727267 0.797893 " transform="matrix(0.996529, 0, 0, -0.996529, 9.525996, 29.009968)"/>
<path fill="none" stroke-width="0.79701" stroke-linecap="round" stroke-linejoin="round" stroke="rgb(100%, 0%, 0%)" stroke-opacity="1" stroke-miterlimit="10" d="M -2.551393 3.110321 C -2.08493 1.24447 -1.046169 0.362503 0.000432014 0.0018766 C -1.046169 -0.36267 -2.08493 -1.244637 -2.551393 -3.110488 " transform="matrix(0, 0.996529, 0.996529, 0, 88.974692, 28.612851)"/>
<path fill="none" stroke-width="0.79701" stroke-linecap="butt" stroke-linejoin="miter" stroke="rgb(100%, 0%, 0%)" stroke-opacity="1" stroke-miterlimit="10" d="M 93.011652 12.757368 L 93.011652 0.797893 " transform="matrix(0.996529, 0, 0, -0.996529, 9.525996, 29.009968)"/>
<path fill="none" stroke-width="0.79701" stroke-linecap="round" stroke-linejoin="round" stroke="rgb(100%, 0%, 0%)" stroke-opacity="1" stroke-miterlimit="10" d="M -2.551393 3.111067 C -2.08493 1.245216 -1.046169 0.363249 0.000432014 -0.00129751 C -1.046169 -0.361924 -2.08493 -1.243891 -2.551393 -3.109742 " transform="matrix(0, 0.996529, 0.996529, 0, 102.216137, 28.612851)"/>
<path fill="none" stroke-width="0.79701" stroke-linecap="butt" stroke-linejoin="miter" stroke="rgb(100%, 0%, 0%)" stroke-opacity="1" stroke-miterlimit="10" d="M 106.299958 12.757368 L 106.299958 0.797893 " transform="matrix(0.996529, 0, 0, -0.996529, 9.525996, 29.009968)"/>
<path fill="none" stroke-width="0.79701" stroke-linecap="round" stroke-linejoin="round" stroke="rgb(100%, 0%, 0%)" stroke-opacity="1" stroke-miterlimit="10" d="M -2.551393 3.111802 C -2.08493 1.245952 -1.046169 0.363985 0.000432014 -0.000561777 C -1.046169 -0.361188 -2.08493 -1.243156 -2.551393 -3.109006 " transform="matrix(0, 0.996529, 0.996529, 0, 115.457591, 28.612851)"/>
<g fill="rgb(0%, 0%, 0%)" fill-opacity="1">
<use xlink:href="#glyph-1-0" x="59.993235" y="13.233911"/>
</g>
<path fill="none" stroke-width="0.79701" stroke-linecap="butt" stroke-linejoin="miter" stroke="rgb(100%, 0%, 0%)" stroke-opacity="1" stroke-miterlimit="10" d="M 106.299958 12.757368 L 106.299958 0.797893 " transform="matrix(0.996529, 0, 0, -0.996529, 9.525996, 29.009968)"/>
<path fill="none" stroke-width="0.79701" stroke-linecap="round" stroke-linejoin="round" stroke="rgb(100%, 0%, 0%)" stroke-opacity="1" stroke-miterlimit="10" d="M -2.551393 3.111802 C -2.08493 1.245952 -1.046169 0.363985 0.000432014 -0.000561777 C -1.046169 -0.361188 -2.08493 -1.243156 -2.551393 -3.109006 " transform="matrix(0, 0.996529, 0.996529, 0, 115.457591, 28.612851)"/>
<path fill="none" stroke-width="0.79701" stroke-linecap="butt" stroke-linejoin="miter" stroke="rgb(100%, 0%, 0%)" stroke-opacity="1" stroke-miterlimit="10" d="M 119.588264 12.757368 L 119.588264 0.797893 " transform="matrix(0.996529, 0, 0, -0.996529, 9.525996, 29.009968)"/>
<path fill="none" stroke-width="0.79701" stroke-linecap="round" stroke-linejoin="round" stroke="rgb(100%, 0%, 0%)" stroke-opacity="1" stroke-miterlimit="10" d="M -2.551393 3.112538 C -2.08493 1.242768 -1.046169 0.36472 0.000432014 0.00017396 C -1.046169 -0.364372 -2.08493 -1.24242 -2.551393 -3.11219 " transform="matrix(0, 0.996529, 0.996529, 0, 128.699045, 28.612851)"/>
<path fill="none" stroke-width="0.79701" stroke-linecap="butt" stroke-linejoin="miter" stroke="rgb(100%, 0%, 0%)" stroke-opacity="1" stroke-miterlimit="10" d="M 132.87657 12.757368 L 132.87657 0.797893 " transform="matrix(0.996529, 0, 0, -0.996529, 9.525996, 29.009968)"/>
<path fill="none" stroke-width="0.79701" stroke-linecap="round" stroke-linejoin="round" stroke="rgb(100%, 0%, 0%)" stroke-opacity="1" stroke-miterlimit="10" d="M -2.551393 3.109354 C -2.08493 1.243503 -1.046169 0.361536 0.000432014 0.000909698 C -1.046169 -0.363637 -2.08493 -1.245604 -2.551393 -3.111455 " transform="matrix(0, 0.996529, 0.996529, 0, 141.9405, 28.612851)"/>
<path fill="none" stroke-width="0.79701" stroke-linecap="butt" stroke-linejoin="miter" stroke="rgb(100%, 0%, 0%)" stroke-opacity="1" stroke-miterlimit="10" d="M 146.164875 12.757368 L 146.164875 0.797893 " transform="matrix(0.996529, 0, 0, -0.996529, 9.525996, 29.009968)"/>
<path fill="none" stroke-width="0.79701" stroke-linecap="round" stroke-linejoin="round" stroke="rgb(100%, 0%, 0%)" stroke-opacity="1" stroke-miterlimit="10" d="M -2.551393 3.1101 C -2.08493 1.244249 -1.046169 0.362282 0.000432014 0.00165544 C -1.046169 -0.362891 -2.08493 -1.244858 -2.551393 -3.110709 " transform="matrix(0, 0.996529, 0.996529, 0, 155.181944, 28.612851)"/>
<path fill="none" stroke-width="0.79701" stroke-linecap="butt" stroke-linejoin="miter" stroke="rgb(100%, 0%, 0%)" stroke-opacity="1" stroke-miterlimit="10" d="M 159.449261 12.757368 L 159.449261 0.797893 " transform="matrix(0.996529, 0, 0, -0.996529, 9.525996, 29.009968)"/>
<path fill="none" stroke-width="0.79701" stroke-linecap="round" stroke-linejoin="round" stroke="rgb(100%, 0%, 0%)" stroke-opacity="1" stroke-miterlimit="10" d="M -2.551393 3.110836 C -2.08493 1.244985 -1.046169 0.363018 0.000432014 -0.00152868 C -1.046169 -0.362155 -2.08493 -1.244122 -2.551393 -3.109973 " transform="matrix(0, 0.996529, 0.996529, 0, 168.423398, 28.612851)"/>
<path fill="none" stroke-width="0.79701" stroke-linecap="butt" stroke-linejoin="miter" stroke="rgb(100%, 0%, 0%)" stroke-opacity="1" stroke-miterlimit="10" d="M 172.737567 12.757368 L 172.737567 0.797893 " transform="matrix(0.996529, 0, 0, -0.996529, 9.525996, 29.009968)"/>
<path fill="none" stroke-width="0.79701" stroke-linecap="round" stroke-linejoin="round" stroke="rgb(100%, 0%, 0%)" stroke-opacity="1" stroke-miterlimit="10" d="M -2.551393 3.111571 C -2.08493 1.245721 -1.046169 0.363753 0.000432014 -0.000792944 C -1.046169 -0.36142 -2.08493 -1.243387 -2.551393 -3.109237 " transform="matrix(0, 0.996529, 0.996529, 0, 181.664853, 28.612851)"/>
<path fill="none" stroke-width="0.79701" stroke-linecap="butt" stroke-linejoin="miter" stroke="rgb(100%, 0%, 0%)" stroke-opacity="1" stroke-miterlimit="10" d="M 186.025873 12.757368 L 186.025873 0.797893 " transform="matrix(0.996529, 0, 0, -0.996529, 9.525996, 29.009968)"/>
<path fill="none" stroke-width="0.79701" stroke-linecap="round" stroke-linejoin="round" stroke="rgb(100%, 0%, 0%)" stroke-opacity="1" stroke-miterlimit="10" d="M -2.551393 3.112317 C -2.08493 1.242547 -1.046169 0.364499 0.000432014 -0.0000472062 C -1.046169 -0.364594 -2.08493 -1.242641 -2.551393 -3.112411 " transform="matrix(0, 0.996529, 0.996529, 0, 194.906297, 28.612851)"/>
<path fill="none" stroke-width="0.79701" stroke-linecap="butt" stroke-linejoin="miter" stroke="rgb(100%, 0%, 0%)" stroke-opacity="1" stroke-miterlimit="10" d="M 199.314179 12.757368 L 199.314179 0.797893 " transform="matrix(0.996529, 0, 0, -0.996529, 9.525996, 29.009968)"/>
<path fill="none" stroke-width="0.79701" stroke-linecap="round" stroke-linejoin="round" stroke="rgb(100%, 0%, 0%)" stroke-opacity="1" stroke-miterlimit="10" d="M -2.551393 3.109143 C -2.08493 1.243292 -1.046169 0.361325 0.000432014 0.000698531 C -1.046169 -0.363848 -2.08493 -1.245815 -2.551393 -3.111666 " transform="matrix(0, 0.996529, 0.996529, 0, 208.147741, 28.612851)"/>
<path fill="none" stroke-width="0.79701" stroke-linecap="butt" stroke-linejoin="miter" stroke="rgb(100%, 0%, 0%)" stroke-opacity="1" stroke-miterlimit="10" d="M 212.602484 12.757368 L 212.602484 0.797893 " transform="matrix(0.996529, 0, 0, -0.996529, 9.525996, 29.009968)"/>
<path fill="none" stroke-width="0.79701" stroke-linecap="round" stroke-linejoin="round" stroke="rgb(100%, 0%, 0%)" stroke-opacity="1" stroke-miterlimit="10" d="M -2.551393 3.109869 C -2.08493 1.244018 -1.046169 0.362051 0.000432014 0.00142427 C -1.046169 -0.363122 -2.08493 -1.245089 -2.551393 -3.11094 " transform="matrix(0, 0.996529, 0.996529, 0, 221.389206, 28.612851)"/>
<g fill="rgb(0%, 0%, 0%)" fill-opacity="1">
<use xlink:href="#glyph-1-0" x="165.923315" y="13.233911"/>
</g>
<path fill="none" stroke-width="0.79701" stroke-linecap="butt" stroke-linejoin="miter" stroke="rgb(0%, 0%, 100%)" stroke-opacity="1" stroke-miterlimit="10" d="M 106.299958 -0.00175714 L 106.299958 -16.210354 " transform="matrix(0.996529, 0, 0, -0.996529, 9.525996, 29.009968)"/>
<path fill="none" stroke-width="0.79701" stroke-linecap="round" stroke-linejoin="round" stroke="rgb(0%, 0%, 100%)" stroke-opacity="1" stroke-miterlimit="10" d="M -2.551276 3.111802 C -2.084813 1.245952 -1.046052 0.363985 0.000549387 -0.000561777 C -1.046052 -0.361188 -2.084813 -1.243156 -2.551276 -3.109006 " transform="matrix(0, 0.996529, 0.996529, 0, 115.457591, 45.561953)"/>
<g fill="rgb(0%, 0%, 0%)" fill-opacity="1">
<use xlink:href="#glyph-1-1" x="118.96386" y="45.113883"/>
</g>
<path fill="none" stroke-width="0.3985" stroke-linecap="butt" stroke-linejoin="miter" stroke="rgb(0%, 0%, 0%)" stroke-opacity="1" stroke-miterlimit="10" d="M 0.397257 -25.512168 L 104.837853 -25.512168 " transform="matrix(0.996529, 0, 0, -0.996529, 9.525996, 29.009968)"/>
<path fill="none" stroke-width="0.3985" stroke-linecap="round" stroke-linejoin="round" stroke="rgb(0%, 0%, 0%)" stroke-opacity="1" stroke-miterlimit="10" d="M -2.071698 2.391239 C -1.695392 0.956573 -0.848703 0.278438 0.00190526 0.000128275 C -0.848703 -0.278181 -1.695392 -0.956316 -2.071698 -2.390983 " transform="matrix(-0.996529, 0, 0, 0.996529, 9.724555, 54.433466)"/>
<path fill="none" stroke-width="0.3985" stroke-linecap="round" stroke-linejoin="round" stroke="rgb(0%, 0%, 0%)" stroke-opacity="1" stroke-miterlimit="10" d="M -2.070768 2.390983 C -1.694462 0.956316 -0.851693 0.278181 -0.00108483 -0.000128275 C -0.851693 -0.278438 -1.694462 -0.956573 -2.070768 -2.391239 " transform="matrix(0.996529, 0, 0, -0.996529, 114.2003, 54.433466)"/>
<path fill-rule="nonzero" fill="rgb(100%, 100%, 100%)" fill-opacity="1" d="M 53.144531 61.878906 L 70.78125 61.878906 L 70.78125 46.988281 L 53.144531 46.988281 Z M 53.144531 61.878906 "/>
<g fill="rgb(0%, 0%, 0%)" fill-opacity="1">
<use xlink:href="#glyph-1-2" x="56.45157" y="57.081205"/>
</g>
<g fill="rgb(0%, 0%, 0%)" fill-opacity="1">
<use xlink:href="#glyph-2-0" x="63.208039" y="58.57002"/>
</g>
<path fill="none" stroke-width="0.3985" stroke-linecap="butt" stroke-linejoin="miter" stroke="rgb(0%, 0%, 0%)" stroke-opacity="1" stroke-miterlimit="10" d="M 107.762064 -25.512168 L 212.202659 -25.512168 " transform="matrix(0.996529, 0, 0, -0.996529, 9.525996, 29.009968)"/>
<path fill="none" stroke-width="0.3985" stroke-linecap="round" stroke-linejoin="round" stroke="rgb(0%, 0%, 0%)" stroke-opacity="1" stroke-miterlimit="10" d="M -2.073574 2.391239 C -1.693348 0.956573 -0.85058 0.278438 0.000028725 0.000128275 C -0.85058 -0.278181 -1.693348 -0.956316 -2.073574 -2.390983 " transform="matrix(-0.996529, 0, 0, 0.996529, 116.714872, 54.433466)"/>
<path fill="none" stroke-width="0.3985" stroke-linecap="round" stroke-linejoin="round" stroke="rgb(0%, 0%, 0%)" stroke-opacity="1" stroke-miterlimit="10" d="M -2.072841 2.390983 C -1.692615 0.956316 -0.849847 0.278181 0.000761705 -0.000128275 C -0.849847 -0.278438 -1.692615 -0.956573 -2.072841 -2.391239 " transform="matrix(0.996529, 0, 0, -0.996529, 221.190647, 54.433466)"/>
<path fill-rule="nonzero" fill="rgb(100%, 100%, 100%)" fill-opacity="1" d="M 160.132812 61.878906 L 177.773438 61.878906 L 177.773438 46.988281 L 160.132812 46.988281 Z M 160.132812 61.878906 "/>
<g fill="rgb(0%, 0%, 0%)" fill-opacity="1">
<use xlink:href="#glyph-1-2" x="163.440961" y="57.081205"/>
</g>
<g fill="rgb(0%, 0%, 0%)" fill-opacity="1">
<use xlink:href="#glyph-2-0" x="170.19743" y="58.57002"/>
</g>
</svg>
