<?xml version="1.0" encoding="UTF-8"?>
<svg xmlns="http://www.w3.org/2000/svg" xmlns:xlink="http://www.w3.org/1999/xlink" width="296.398" height="230.667" viewBox="0 0 296.398 230.667">
<defs>
<g>
<g id="glyph-0-0">
<path d="M 5.65625 -4.875 C 5.28125 -4.796875 5.140625 -4.515625 5.140625 -4.28125 C 5.140625 -4 5.359375 -3.90625 5.53125 -3.90625 C 5.890625 -3.90625 6.140625 -4.21875 6.140625 -4.53125 C 6.140625 -5.03125 5.5625 -5.265625 5.0625 -5.265625 C 4.328125 -5.265625 3.921875 -4.546875 3.8125 -4.328125 C 3.546875 -5.21875 2.8125 -5.265625 2.59375 -5.265625 C 1.375 -5.265625 0.734375 -3.703125 0.734375 -3.4375 C 0.734375 -3.390625 0.78125 -3.328125 0.859375 -3.328125 C 0.953125 -3.328125 0.984375 -3.40625 1 -3.453125 C 1.40625 -4.78125 2.203125 -5.03125 2.546875 -5.03125 C 3.09375 -5.03125 3.203125 -4.53125 3.203125 -4.234375 C 3.203125 -3.96875 3.125 -3.703125 2.984375 -3.125 L 2.578125 -1.5 C 2.40625 -0.78125 2.046875 -0.125 1.421875 -0.125 C 1.359375 -0.125 1.0625 -0.125 0.8125 -0.28125 C 1.234375 -0.359375 1.34375 -0.71875 1.34375 -0.859375 C 1.34375 -1.09375 1.15625 -1.234375 0.9375 -1.234375 C 0.640625 -1.234375 0.328125 -0.984375 0.328125 -0.609375 C 0.328125 -0.109375 0.890625 0.125 1.40625 0.125 C 1.984375 0.125 2.390625 -0.328125 2.640625 -0.828125 C 2.828125 -0.125 3.421875 0.125 3.875 0.125 C 5.078125 0.125 5.734375 -1.4375 5.734375 -1.703125 C 5.734375 -1.765625 5.6875 -1.8125 5.609375 -1.8125 C 5.5 -1.8125 5.484375 -1.75 5.453125 -1.65625 C 5.140625 -0.609375 4.4375 -0.125 3.90625 -0.125 C 3.484375 -0.125 3.265625 -0.4375 3.265625 -0.921875 C 3.265625 -1.1875 3.3125 -1.375 3.5 -2.15625 L 3.921875 -3.78125 C 4.09375 -4.5 4.5 -5.03125 5.046875 -5.03125 C 5.078125 -5.03125 5.40625 -5.03125 5.65625 -4.875 Z M 5.65625 -4.875 "/>
</g>
<g id="glyph-0-1">
<path d="M 3.140625 1.34375 C 2.8125 1.796875 2.359375 2.203125 1.765625 2.203125 C 1.625 2.203125 1.046875 2.171875 0.875 1.625 C 0.90625 1.640625 0.96875 1.640625 0.984375 1.640625 C 1.34375 1.640625 1.59375 1.328125 1.59375 1.046875 C 1.59375 0.78125 1.359375 0.6875 1.1875 0.6875 C 0.984375 0.6875 0.578125 0.828125 0.578125 1.40625 C 0.578125 2.015625 1.09375 2.4375 1.765625 2.4375 C 2.953125 2.4375 4.171875 1.34375 4.5 0.015625 L 5.671875 -4.640625 C 5.6875 -4.703125 5.703125 -4.78125 5.703125 -4.84375 C 5.703125 -5.03125 5.5625 -5.140625 5.390625 -5.140625 C 5.28125 -5.140625 5.03125 -5.09375 4.9375 -4.734375 L 4.046875 -1.234375 C 3.984375 -1.015625 3.984375 -0.984375 3.890625 -0.859375 C 3.65625 -0.53125 3.265625 -0.125 2.6875 -0.125 C 2.015625 -0.125 1.953125 -0.78125 1.953125 -1.09375 C 1.953125 -1.78125 2.28125 -2.703125 2.609375 -3.5625 C 2.734375 -3.90625 2.8125 -4.078125 2.8125 -4.3125 C 2.8125 -4.8125 2.453125 -5.265625 1.859375 -5.265625 C 0.765625 -5.265625 0.328125 -3.53125 0.328125 -3.4375 C 0.328125 -3.390625 0.375 -3.328125 0.453125 -3.328125 C 0.5625 -3.328125 0.578125 -3.375 0.625 -3.546875 C 0.90625 -4.546875 1.359375 -5.03125 1.828125 -5.03125 C 1.9375 -5.03125 2.140625 -5.03125 2.140625 -4.625 C 2.140625 -4.328125 2 -3.96875 1.828125 -3.515625 C 1.234375 -1.953125 1.234375 -1.5625 1.234375 -1.28125 C 1.234375 -0.140625 2.046875 0.125 2.65625 0.125 C 3 0.125 3.421875 0.015625 3.84375 -0.4375 L 3.859375 -0.421875 C 3.671875 0.28125 3.5625 0.75 3.140625 1.34375 Z M 3.140625 1.34375 "/>
</g>
<g id="glyph-0-2">
<path d="M 8.671875 -5.234375 C 8.671875 -7.203125 7.375 -8.40625 5.703125 -8.40625 C 3.15625 -8.40625 0.578125 -5.65625 0.578125 -2.90625 C 0.578125 -1.03125 1.8125 0.25 3.546875 0.25 C 6.046875 0.25 8.671875 -2.359375 8.671875 -5.234375 Z M 3.609375 -0.03125 C 2.640625 -0.03125 1.59375 -0.734375 1.59375 -2.609375 C 1.59375 -3.6875 2 -5.46875 2.96875 -6.65625 C 3.84375 -7.71875 4.84375 -8.140625 5.640625 -8.140625 C 6.703125 -8.140625 7.71875 -7.375 7.71875 -5.65625 C 7.71875 -4.59375 7.265625 -2.9375 6.453125 -1.796875 C 5.59375 -0.578125 4.5 -0.03125 3.609375 -0.03125 Z M 3.609375 -0.03125 "/>
</g>
<g id="glyph-0-3">
<path d="M 8.828125 -6.90625 C 8.96875 -7.40625 9.15625 -7.765625 10.0625 -7.8125 C 10.09375 -7.8125 10.25 -7.8125 10.25 -8.015625 C 10.25 -8.15625 10.140625 -8.15625 10.09375 -8.15625 C 9.84375 -8.15625 9.234375 -8.125 9 -8.125 L 8.421875 -8.125 C 8.265625 -8.125 8.046875 -8.15625 7.875 -8.15625 C 7.8125 -8.15625 7.65625 -8.15625 7.65625 -7.921875 C 7.65625 -7.8125 7.765625 -7.8125 7.84375 -7.8125 C 8.5625 -7.78125 8.609375 -7.515625 8.609375 -7.296875 C 8.609375 -7.1875 8.59375 -7.15625 8.5625 -6.984375 L 7.203125 -1.59375 L 4.65625 -7.953125 C 4.578125 -8.140625 4.5625 -8.15625 4.296875 -8.15625 L 2.84375 -8.15625 C 2.609375 -8.15625 2.5 -8.15625 2.5 -7.921875 C 2.5 -7.8125 2.578125 -7.8125 2.8125 -7.8125 C 2.859375 -7.8125 3.5625 -7.8125 3.5625 -7.703125 C 3.5625 -7.671875 3.546875 -7.578125 3.53125 -7.546875 L 1.953125 -1.21875 C 1.796875 -0.625 1.515625 -0.375 0.734375 -0.34375 C 0.671875 -0.34375 0.546875 -0.328125 0.546875 -0.125 C 0.546875 0 0.671875 0 0.703125 0 C 0.9375 0 1.546875 -0.03125 1.796875 -0.03125 L 2.359375 -0.03125 C 2.53125 -0.03125 2.734375 0 2.90625 0 C 2.984375 0 3.109375 0 3.109375 -0.234375 C 3.109375 -0.328125 3 -0.34375 2.953125 -0.34375 C 2.546875 -0.359375 2.171875 -0.4375 2.171875 -0.859375 C 2.171875 -0.953125 2.203125 -1.0625 2.21875 -1.15625 L 3.828125 -7.546875 C 3.90625 -7.421875 3.90625 -7.40625 3.953125 -7.296875 L 6.796875 -0.21875 C 6.859375 -0.078125 6.875 0 6.984375 0 C 7.109375 0 7.109375 -0.03125 7.15625 -0.234375 Z M 8.828125 -6.90625 "/>
</g>
<g id="glyph-1-0">
<path d="M 3.984375 -3.171875 C 3.640625 -3.078125 3.625 -2.78125 3.625 -2.75 C 3.625 -2.5625 3.75 -2.453125 3.921875 -2.453125 C 4.109375 -2.453125 4.375 -2.578125 4.375 -2.921875 C 4.375 -3.375 3.875 -3.5 3.578125 -3.5 C 3.203125 -3.5 2.90625 -3.25 2.71875 -2.9375 C 2.546875 -3.359375 2.125 -3.5 1.8125 -3.5 C 0.9375 -3.5 0.453125 -2.515625 0.453125 -2.296875 C 0.453125 -2.21875 0.515625 -2.1875 0.578125 -2.1875 C 0.671875 -2.1875 0.6875 -2.234375 0.703125 -2.328125 C 0.890625 -2.90625 1.375 -3.28125 1.78125 -3.28125 C 2.09375 -3.28125 2.25 -3.0625 2.25 -2.78125 C 2.25 -2.609375 2.140625 -2.25 2.078125 -2 C 2.03125 -1.765625 1.859375 -1.0625 1.8125 -0.90625 C 1.703125 -0.484375 1.421875 -0.140625 1.0625 -0.140625 C 1.03125 -0.140625 0.8125 -0.140625 0.65625 -0.25 C 1.015625 -0.34375 1.015625 -0.671875 1.015625 -0.6875 C 1.015625 -0.859375 0.875 -0.984375 0.703125 -0.984375 C 0.484375 -0.984375 0.25 -0.796875 0.25 -0.5 C 0.25 -0.125 0.640625 0.078125 1.046875 0.078125 C 1.46875 0.078125 1.765625 -0.234375 1.90625 -0.5 C 2.078125 -0.109375 2.453125 0.078125 2.828125 0.078125 C 3.703125 0.078125 4.171875 -0.921875 4.171875 -1.140625 C 4.171875 -1.21875 4.109375 -1.234375 4.0625 -1.234375 C 3.953125 -1.234375 3.9375 -1.1875 3.921875 -1.109375 C 3.765625 -0.578125 3.3125 -0.140625 2.84375 -0.140625 C 2.578125 -0.140625 2.390625 -0.3125 2.390625 -0.65625 C 2.390625 -0.8125 2.4375 -1 2.546875 -1.4375 C 2.609375 -1.671875 2.78125 -2.375 2.828125 -2.53125 C 2.9375 -2.9375 3.21875 -3.28125 3.578125 -3.28125 C 3.609375 -3.28125 3.8125 -3.28125 3.984375 -3.171875 Z M 3.984375 -3.171875 "/>
</g>
<g id="glyph-1-1">
<path d="M 4.125 -3 C 4.15625 -3.109375 4.15625 -3.125 4.15625 -3.1875 C 4.15625 -3.375 4 -3.421875 3.890625 -3.421875 C 3.859375 -3.421875 3.671875 -3.421875 3.578125 -3.21875 C 3.5625 -3.171875 3.484375 -2.890625 3.4375 -2.71875 L 2.96875 -0.8125 C 2.953125 -0.78125 2.609375 -0.140625 2.03125 -0.140625 C 1.640625 -0.140625 1.515625 -0.421875 1.515625 -0.78125 C 1.515625 -1.25 1.78125 -1.953125 1.96875 -2.421875 C 2.046875 -2.609375 2.0625 -2.6875 2.0625 -2.828125 C 2.0625 -3.265625 1.71875 -3.5 1.359375 -3.5 C 0.5625 -3.5 0.234375 -2.390625 0.234375 -2.296875 C 0.234375 -2.21875 0.296875 -2.1875 0.359375 -2.1875 C 0.46875 -2.1875 0.46875 -2.234375 0.5 -2.3125 C 0.703125 -3 1.046875 -3.28125 1.328125 -3.28125 C 1.453125 -3.28125 1.515625 -3.203125 1.515625 -3.015625 C 1.515625 -2.859375 1.453125 -2.671875 1.40625 -2.53125 C 1.078125 -1.6875 0.9375 -1.28125 0.9375 -0.90625 C 0.9375 -0.125 1.53125 0.078125 2 0.078125 C 2.375 0.078125 2.640625 -0.09375 2.828125 -0.265625 C 2.71875 0.171875 2.640625 0.484375 2.34375 0.859375 C 2.078125 1.1875 1.75 1.40625 1.40625 1.40625 C 1.265625 1.40625 0.96875 1.375 0.796875 1.140625 C 1.21875 1.109375 1.25 0.75 1.25 0.703125 C 1.25 0.515625 1.109375 0.40625 0.953125 0.40625 C 0.765625 0.40625 0.5 0.546875 0.5 0.9375 C 0.5 1.296875 0.828125 1.625 1.40625 1.625 C 2.21875 1.625 3.125 0.96875 3.359375 0.015625 Z M 4.125 -3 "/>
</g>
</g>
</defs>
<path fill-rule="nonzero" fill="rgb(94.999695%, 94.999695%, 94.999695%)" fill-opacity="1" stroke-width="1.19553" stroke-linecap="butt" stroke-linejoin="miter" stroke="rgb(0%, 0%, 0%)" stroke-opacity="1" stroke-miterlimit="10" d="M -85.04046 -56.692986 L -85.04046 56.693091 L 85.038654 56.693091 L 85.038654 -56.692986 Z M -85.04046 -56.692986 " transform="matrix(0.997973, 0, 0, -0.997973, 136.461839, 128.832084)"/>
<path fill="none" stroke-width="0.3985" stroke-linecap="butt" stroke-linejoin="miter" stroke="rgb(59.999084%, 59.999084%, 59.999084%)" stroke-opacity="1" stroke-dasharray="2.98883 2.98883" stroke-miterlimit="10" d="M -127.560239 0.0000525198 L 137.152097 0.0000525198 " transform="matrix(0.997973, 0, 0, -0.997973, 136.461839, 128.832084)"/>
<path fill-rule="nonzero" fill="rgb(59.999084%, 59.999084%, 59.999084%)" fill-opacity="1" stroke-width="0.3985" stroke-linecap="butt" stroke-linejoin="miter" stroke="rgb(59.999084%, 59.999084%, 59.999084%)" stroke-opacity="1" stroke-miterlimit="10" d="M 3.762428 0.0000525198 C 3.300554 0.113564 1.269093 0.751576 0.000897232 1.448301 L 0.000897232 -1.448195 C 1.269093 -0.751471 3.300554 -0.113459 3.762428 0.0000525198 Z M 3.762428 0.0000525198 " transform="matrix(0.997973, 0, 0, -0.997973, 273.335042, 128.832084)"/>
<g fill="rgb(0%, 0%, 0%)" fill-opacity="1">
<use xlink:href="#glyph-0-0" x="282.082076" y="131.399868"/>
</g>
<path fill="none" stroke-width="0.3985" stroke-linecap="butt" stroke-linejoin="miter" stroke="rgb(59.999084%, 59.999084%, 59.999084%)" stroke-opacity="1" stroke-dasharray="2.98883 2.98883" stroke-miterlimit="10" d="M -0.000903125 -99.212764 L -0.000903125 108.80262 " transform="matrix(0.997973, 0, 0, -0.997973, 136.461839, 128.832084)"/>
<path fill-rule="nonzero" fill="rgb(59.999084%, 59.999084%, 59.999084%)" fill-opacity="1" stroke-width="0.3985" stroke-linecap="butt" stroke-linejoin="miter" stroke="rgb(59.999084%, 59.999084%, 59.999084%)" stroke-opacity="1" stroke-miterlimit="10" d="M 3.75977 0.000903125 C 3.297897 0.114414 1.270349 0.752426 -0.00176039 1.445237 L -0.00176039 -1.447345 C 1.270349 -0.75062 3.297897 -0.112608 3.75977 0.000903125 Z M 3.75977 0.000903125 " transform="matrix(0, -0.997973, -0.997973, 0, 136.461839, 20.248243)"/>
<g fill="rgb(0%, 0%, 0%)" fill-opacity="1">
<use xlink:href="#glyph-0-1" x="133.400057" y="9.181101"/>
</g>
<path fill-rule="nonzero" fill="rgb(0%, 0%, 0%)" fill-opacity="1" stroke-width="0.79701" stroke-linecap="butt" stroke-linejoin="miter" stroke="rgb(0%, 0%, 0%)" stroke-opacity="1" stroke-miterlimit="10" d="M 1.494315 0.0000525198 C 1.494315 0.825945 0.82499 1.495271 -0.000903125 1.495271 C -0.826796 1.495271 -1.496121 0.825945 -1.496121 0.0000525198 C -1.496121 -0.82584 -0.826796 -1.495166 -0.000903125 -1.495166 C 0.82499 -1.495166 1.494315 -0.82584 1.494315 0.0000525198 Z M 1.494315 0.0000525198 " transform="matrix(0.997973, 0, 0, -0.997973, 136.461839, 128.832084)"/>
<g fill="rgb(0%, 0%, 0%)" fill-opacity="1">
<use xlink:href="#glyph-0-2" x="140.835955" y="141.358642"/>
</g>
<path fill="none" stroke-width="0.79701" stroke-linecap="butt" stroke-linejoin="miter" stroke="rgb(0%, 0%, 79.998779%)" stroke-opacity="1" stroke-miterlimit="10" d="M 85.038654 -42.519726 L 101.540853 -42.519726 " transform="matrix(0.997973, 0, 0, -0.997973, 136.461839, 128.832084)"/>
<path fill-rule="nonzero" fill="rgb(0%, 0%, 79.998779%)" fill-opacity="1" stroke-width="0.79701" stroke-linecap="butt" stroke-linejoin="miter" stroke="rgb(0%, 0%, 79.998779%)" stroke-opacity="1" stroke-miterlimit="10" d="M 4.532458 0.000473899 C 3.976644 0.13747 1.530279 0.920307 -0.000166981 1.773599 L -0.000166981 -1.772651 C 1.530279 -0.919359 3.976644 -0.136523 4.532458 0.000473899 Z M 4.532458 0.000473899 " transform="matrix(0.997973, 0, 0, -0.997973, 237.797042, 171.266098)"/>
<path fill="none" stroke-width="0.79701" stroke-linecap="butt" stroke-linejoin="miter" stroke="rgb(0%, 0%, 79.998779%)" stroke-opacity="1" stroke-miterlimit="10" d="M 85.038654 -14.173207 L 101.540853 -14.173207 " transform="matrix(0.997973, 0, 0, -0.997973, 136.461839, 128.832084)"/>
<path fill-rule="nonzero" fill="rgb(0%, 0%, 79.998779%)" fill-opacity="1" stroke-width="0.79701" stroke-linecap="butt" stroke-linejoin="miter" stroke="rgb(0%, 0%, 79.998779%)" stroke-opacity="1" stroke-miterlimit="10" d="M 4.532458 0.000182979 C 3.976644 0.137179 1.530279 0.920016 -0.000166981 1.773308 L -0.000166981 -1.772942 C 1.530279 -0.91965 3.976644 -0.136813 4.532458 0.000182979 Z M 4.532458 0.000182979 " transform="matrix(0.997973, 0, 0, -0.997973, 237.797042, 142.976745)"/>
<path fill="none" stroke-width="0.79701" stroke-linecap="butt" stroke-linejoin="miter" stroke="rgb(0%, 0%, 79.998779%)" stroke-opacity="1" stroke-miterlimit="10" d="M 85.038654 14.173312 L 101.540853 14.173312 " transform="matrix(0.997973, 0, 0, -0.997973, 136.461839, 128.832084)"/>
<path fill-rule="nonzero" fill="rgb(0%, 0%, 79.998779%)" fill-opacity="1" stroke-width="0.79701" stroke-linecap="butt" stroke-linejoin="miter" stroke="rgb(0%, 0%, 79.998779%)" stroke-opacity="1" stroke-miterlimit="10" d="M 4.532458 -0.0000779399 C 3.976644 0.136918 1.530279 0.919755 -0.000166981 1.773047 L -0.000166981 -1.773203 C 1.530279 -0.919911 3.976644 -0.137074 4.532458 -0.0000779399 Z M 4.532458 -0.0000779399 " transform="matrix(0.997973, 0, 0, -0.997973, 237.797042, 114.687422)"/>
<path fill="none" stroke-width="0.79701" stroke-linecap="butt" stroke-linejoin="miter" stroke="rgb(0%, 0%, 79.998779%)" stroke-opacity="1" stroke-miterlimit="10" d="M 85.038654 42.519831 L 101.540853 42.519831 " transform="matrix(0.997973, 0, 0, -0.997973, 136.461839, 128.832084)"/>
<path fill-rule="nonzero" fill="rgb(0%, 0%, 79.998779%)" fill-opacity="1" stroke-width="0.79701" stroke-linecap="butt" stroke-linejoin="miter" stroke="rgb(0%, 0%, 79.998779%)" stroke-opacity="1" stroke-miterlimit="10" d="M 4.532458 -0.000368859 C 3.976644 0.136628 1.530279 0.919464 -0.000166981 1.772756 L -0.000166981 -1.773494 C 1.530279 -0.920202 3.976644 -0.137365 4.532458 -0.000368859 Z M 4.532458 -0.000368859 " transform="matrix(0.997973, 0, 0, -0.997973, 237.797042, 86.398069)"/>
<path fill="none" stroke-width="0.478" stroke-linecap="butt" stroke-linejoin="miter" stroke="rgb(0%, 0%, 79.998779%)" stroke-opacity="1" stroke-miterlimit="10" d="M 0.00132091 0.000338921 L 10.624416 0.000338921 " transform="matrix(0.997973, 0, 0, -0.997973, 248.334619, 123.383151)"/>
<g fill="rgb(0%, 0%, 79.998779%)" fill-opacity="1">
<use xlink:href="#glyph-0-3" x="248.334619" y="133.2062"/>
</g>
<g fill="rgb(0%, 0%, 79.998779%)" fill-opacity="1">
<use xlink:href="#glyph-1-0" x="258.935089" y="134.996563"/>
<use xlink:href="#glyph-1-0" x="263.692344" y="134.996563"/>
</g>
<path fill="none" stroke-width="0.79701" stroke-linecap="butt" stroke-linejoin="miter" stroke="rgb(0%, 0%, 79.998779%)" stroke-opacity="1" stroke-miterlimit="10" d="M -85.04046 -42.519726 L -101.542659 -42.519726 " transform="matrix(0.997973, 0, 0, -0.997973, 136.461839, 128.832084)"/>
<path fill-rule="nonzero" fill="rgb(0%, 0%, 79.998779%)" fill-opacity="1" stroke-width="0.79701" stroke-linecap="butt" stroke-linejoin="miter" stroke="rgb(0%, 0%, 79.998779%)" stroke-opacity="1" stroke-miterlimit="10" d="M 4.534264 -0.000473899 C 3.97845 0.136523 1.528171 0.919359 0.00163927 1.772651 L 0.00163927 -1.773599 C 1.528171 -0.920307 3.97845 -0.13747 4.534264 -0.000473899 Z M 4.534264 -0.000473899 " transform="matrix(-0.997973, 0, 0, 0.997973, 35.126636, 171.266098)"/>
<path fill="none" stroke-width="0.79701" stroke-linecap="butt" stroke-linejoin="miter" stroke="rgb(0%, 0%, 79.998779%)" stroke-opacity="1" stroke-miterlimit="10" d="M -85.04046 -14.173207 L -101.542659 -14.173207 " transform="matrix(0.997973, 0, 0, -0.997973, 136.461839, 128.832084)"/>
<path fill-rule="nonzero" fill="rgb(0%, 0%, 79.998779%)" fill-opacity="1" stroke-width="0.79701" stroke-linecap="butt" stroke-linejoin="miter" stroke="rgb(0%, 0%, 79.998779%)" stroke-opacity="1" stroke-miterlimit="10" d="M 4.534264 -0.000182979 C 3.97845 0.136813 1.528171 0.91965 0.00163927 1.772942 L 0.00163927 -1.773308 C 1.528171 -0.920016 3.97845 -0.137179 4.534264 -0.000182979 Z M 4.534264 -0.000182979 " transform="matrix(-0.997973, 0, 0, 0.997973, 35.126636, 142.976745)"/>
<path fill="none" stroke-width="0.79701" stroke-linecap="butt" stroke-linejoin="miter" stroke="rgb(0%, 0%, 79.998779%)" stroke-opacity="1" stroke-miterlimit="10" d="M -85.04046 14.173312 L -101.542659 14.173312 " transform="matrix(0.997973, 0, 0, -0.997973, 136.461839, 128.832084)"/>
<path fill-rule="nonzero" fill="rgb(0%, 0%, 79.998779%)" fill-opacity="1" stroke-width="0.79701" stroke-linecap="butt" stroke-linejoin="miter" stroke="rgb(0%, 0%, 79.998779%)" stroke-opacity="1" stroke-miterlimit="10" d="M 4.534264 0.0000779399 C 3.97845 0.137074 1.528171 0.919911 0.00163927 1.773203 L 0.00163927 -1.773047 C 1.528171 -0.919755 3.97845 -0.136918 4.534264 0.0000779399 Z M 4.534264 0.0000779399 " transform="matrix(-0.997973, 0, 0, 0.997973, 35.126636, 114.687422)"/>
<path fill="none" stroke-width="0.79701" stroke-linecap="butt" stroke-linejoin="miter" stroke="rgb(0%, 0%, 79.998779%)" stroke-opacity="1" stroke-miterlimit="10" d="M -85.04046 42.519831 L -101.542659 42.519831 " transform="matrix(0.997973, 0, 0, -0.997973, 136.461839, 128.832084)"/>
<path fill-rule="nonzero" fill="rgb(0%, 0%, 79.998779%)" fill-opacity="1" stroke-width="0.79701" stroke-linecap="butt" stroke-linejoin="miter" stroke="rgb(0%, 0%, 79.998779%)" stroke-opacity="1" stroke-miterlimit="10" d="M 4.534264 0.000368859 C 3.97845 0.137365 1.528171 0.920202 0.00163927 1.773494 L 0.00163927 -1.772756 C 1.528171 -0.919464 3.97845 -0.136628 4.534264 0.000368859 Z M 4.534264 0.000368859 " transform="matrix(-0.997973, 0, 0, 0.997973, 35.126636, 86.398069)"/>
<path fill="none" stroke-width="0.478" stroke-linecap="butt" stroke-linejoin="miter" stroke="rgb(0%, 0%, 79.998779%)" stroke-opacity="1" stroke-miterlimit="10" d="M -0.000360891 0.000338921 L 10.622734 0.000338921 " transform="matrix(0.997973, 0, 0, -0.997973, 3.976923, 123.383151)"/>
<g fill="rgb(0%, 0%, 79.998779%)" fill-opacity="1">
<use xlink:href="#glyph-0-3" x="3.976923" y="133.2062"/>
</g>
<g fill="rgb(0%, 0%, 79.998779%)" fill-opacity="1">
<use xlink:href="#glyph-1-0" x="14.577393" y="134.996563"/>
<use xlink:href="#glyph-1-0" x="19.334647" y="134.996563"/>
</g>
<path fill="none" stroke-width="0.79701" stroke-linecap="butt" stroke-linejoin="miter" stroke="rgb(79.998779%, 0%, 0%)" stroke-opacity="1" stroke-miterlimit="10" d="M -70.867201 56.693091 L -70.867201 73.19529 " transform="matrix(0.997973, 0, 0, -0.997973, 136.461839, 128.832084)"/>
<path fill-rule="nonzero" fill="rgb(79.998779%, 0%, 0%)" fill-opacity="1" stroke-width="0.79701" stroke-linecap="butt" stroke-linejoin="miter" stroke="rgb(79.998779%, 0%, 0%)" stroke-opacity="1" stroke-miterlimit="10" d="M 4.533714 0.000200827 C 3.9779 0.137197 1.531535 0.920034 0.00108958 1.773326 L 0.00108958 -1.772924 C 1.531535 -0.919632 3.9779 -0.136796 4.533714 0.000200827 Z M 4.533714 0.000200827 " transform="matrix(0, -0.997973, -0.997973, 0, 65.738482, 55.786244)"/>
<path fill="none" stroke-width="0.79701" stroke-linecap="butt" stroke-linejoin="miter" stroke="rgb(79.998779%, 0%, 0%)" stroke-opacity="1" stroke-miterlimit="10" d="M -42.520682 56.693091 L -42.520682 73.19529 " transform="matrix(0.997973, 0, 0, -0.997973, 136.461839, 128.832084)"/>
<path fill-rule="nonzero" fill="rgb(79.998779%, 0%, 0%)" fill-opacity="1" stroke-width="0.79701" stroke-linecap="butt" stroke-linejoin="miter" stroke="rgb(79.998779%, 0%, 0%)" stroke-opacity="1" stroke-miterlimit="10" d="M 4.533714 0.000481746 C 3.9779 0.137478 1.531535 0.920315 0.00108958 1.773607 L 0.00108958 -1.772644 C 1.531535 -0.919351 3.9779 -0.136515 4.533714 0.000481746 Z M 4.533714 0.000481746 " transform="matrix(0, -0.997973, -0.997973, 0, 94.027825, 55.786244)"/>
<path fill="none" stroke-width="0.79701" stroke-linecap="butt" stroke-linejoin="miter" stroke="rgb(79.998779%, 0%, 0%)" stroke-opacity="1" stroke-miterlimit="10" d="M -14.174163 56.693091 L -14.174163 73.19529 " transform="matrix(0.997973, 0, 0, -0.997973, 136.461839, 128.832084)"/>
<path fill-rule="nonzero" fill="rgb(79.998779%, 0%, 0%)" fill-opacity="1" stroke-width="0.79701" stroke-linecap="butt" stroke-linejoin="miter" stroke="rgb(79.998779%, 0%, 0%)" stroke-opacity="1" stroke-miterlimit="10" d="M 4.533714 0.000772666 C 3.9779 0.137769 1.531535 0.920606 0.00108958 1.773898 L 0.00108958 -1.772353 C 1.531535 -0.919061 3.9779 -0.136224 4.533714 0.000772666 Z M 4.533714 0.000772666 " transform="matrix(0, -0.997973, -0.997973, 0, 122.317177, 55.786244)"/>
<path fill="none" stroke-width="0.79701" stroke-linecap="butt" stroke-linejoin="miter" stroke="rgb(79.998779%, 0%, 0%)" stroke-opacity="1" stroke-miterlimit="10" d="M 14.172356 56.693091 L 14.172356 73.19529 " transform="matrix(0.997973, 0, 0, -0.997973, 136.461839, 128.832084)"/>
<path fill-rule="nonzero" fill="rgb(79.998779%, 0%, 0%)" fill-opacity="1" stroke-width="0.79701" stroke-linecap="butt" stroke-linejoin="miter" stroke="rgb(79.998779%, 0%, 0%)" stroke-opacity="1" stroke-miterlimit="10" d="M 4.533714 0.00103358 C 3.9779 0.13803 1.531535 0.920867 0.00108958 1.770245 L 0.00108958 -1.772092 C 1.531535 -0.9188 3.9779 -0.139877 4.533714 0.00103358 Z M 4.533714 0.00103358 " transform="matrix(0, -0.997973, -0.997973, 0, 150.6065, 55.786244)"/>
<path fill="none" stroke-width="0.79701" stroke-linecap="butt" stroke-linejoin="miter" stroke="rgb(79.998779%, 0%, 0%)" stroke-opacity="1" stroke-miterlimit="10" d="M 42.518875 56.693091 L 42.518875 73.19529 " transform="matrix(0.997973, 0, 0, -0.997973, 136.461839, 128.832084)"/>
<path fill-rule="nonzero" fill="rgb(79.998779%, 0%, 0%)" fill-opacity="1" stroke-width="0.79701" stroke-linecap="butt" stroke-linejoin="miter" stroke="rgb(79.998779%, 0%, 0%)" stroke-opacity="1" stroke-miterlimit="10" d="M 4.533714 0.0013245 C 3.9779 0.138321 1.531535 0.921158 0.00108958 1.770536 L 0.00108958 -1.771801 C 1.531535 -0.922423 3.9779 -0.139586 4.533714 0.0013245 Z M 4.533714 0.0013245 " transform="matrix(0, -0.997973, -0.997973, 0, 178.895853, 55.786244)"/>
<path fill="none" stroke-width="0.79701" stroke-linecap="butt" stroke-linejoin="miter" stroke="rgb(79.998779%, 0%, 0%)" stroke-opacity="1" stroke-miterlimit="10" d="M 70.865395 56.693091 L 70.865395 73.19529 " transform="matrix(0.997973, 0, 0, -0.997973, 136.461839, 128.832084)"/>
<path fill-rule="nonzero" fill="rgb(79.998779%, 0%, 0%)" fill-opacity="1" stroke-width="0.79701" stroke-linecap="butt" stroke-linejoin="miter" stroke="rgb(79.998779%, 0%, 0%)" stroke-opacity="1" stroke-miterlimit="10" d="M 4.533714 0.00160542 C 3.9779 0.138602 1.531535 0.921439 0.00108958 1.770817 L 0.00108958 -1.77152 C 1.531535 -0.922142 3.9779 -0.139305 4.533714 0.00160542 Z M 4.533714 0.00160542 " transform="matrix(0, -0.997973, -0.997973, 0, 207.185196, 55.786244)"/>
<path fill="none" stroke-width="0.478" stroke-linecap="butt" stroke-linejoin="miter" stroke="rgb(79.998779%, 0%, 0%)" stroke-opacity="1" stroke-miterlimit="10" d="M -0.000956205 -0.000271485 L 10.622139 -0.000271485 " transform="matrix(0.997973, 0, 0, -0.997973, 126.450173, 32.089573)"/>
<g fill="rgb(79.998779%, 0%, 0%)" fill-opacity="1">
<use xlink:href="#glyph-0-3" x="126.450173" y="41.912622"/>
</g>
<g fill="rgb(79.998779%, 0%, 0%)" fill-opacity="1">
<use xlink:href="#glyph-1-1" x="137.050643" y="43.701987"/>
</g>
<g fill="rgb(79.998779%, 0%, 0%)" fill-opacity="1">
<use xlink:href="#glyph-1-1" x="141.514397" y="43.701987"/>
</g>
<path fill="none" stroke-width="0.79701" stroke-linecap="butt" stroke-linejoin="miter" stroke="rgb(79.998779%, 0%, 0%)" stroke-opacity="1" stroke-miterlimit="10" d="M -70.867201 -56.692986 L -70.867201 -73.195185 " transform="matrix(0.997973, 0, 0, -0.997973, 136.461839, 128.832084)"/>
<path fill-rule="nonzero" fill="rgb(79.998779%, 0%, 0%)" fill-opacity="1" stroke-width="0.79701" stroke-linecap="butt" stroke-linejoin="miter" stroke="rgb(79.998779%, 0%, 0%)" stroke-opacity="1" stroke-miterlimit="10" d="M 4.533609 -0.000200827 C 3.977795 0.136796 1.53143 0.919632 0.000984543 1.772924 L 0.000984543 -1.773326 C 1.53143 -0.920034 3.977795 -0.137197 4.533609 -0.000200827 Z M 4.533609 -0.000200827 " transform="matrix(0, 0.997973, 0.997973, 0, 65.738482, 201.877924)"/>
<path fill="none" stroke-width="0.79701" stroke-linecap="butt" stroke-linejoin="miter" stroke="rgb(79.998779%, 0%, 0%)" stroke-opacity="1" stroke-miterlimit="10" d="M -42.520682 -56.692986 L -42.520682 -73.195185 " transform="matrix(0.997973, 0, 0, -0.997973, 136.461839, 128.832084)"/>
<path fill-rule="nonzero" fill="rgb(79.998779%, 0%, 0%)" fill-opacity="1" stroke-width="0.79701" stroke-linecap="butt" stroke-linejoin="miter" stroke="rgb(79.998779%, 0%, 0%)" stroke-opacity="1" stroke-miterlimit="10" d="M 4.533609 -0.000481746 C 3.977795 0.136515 1.53143 0.919351 0.000984543 1.772644 L 0.000984543 -1.773607 C 1.53143 -0.920315 3.977795 -0.137478 4.533609 -0.000481746 Z M 4.533609 -0.000481746 " transform="matrix(0, 0.997973, 0.997973, 0, 94.027825, 201.877924)"/>
<path fill="none" stroke-width="0.79701" stroke-linecap="butt" stroke-linejoin="miter" stroke="rgb(79.998779%, 0%, 0%)" stroke-opacity="1" stroke-miterlimit="10" d="M -14.174163 -56.692986 L -14.174163 -73.195185 " transform="matrix(0.997973, 0, 0, -0.997973, 136.461839, 128.832084)"/>
<path fill-rule="nonzero" fill="rgb(79.998779%, 0%, 0%)" fill-opacity="1" stroke-width="0.79701" stroke-linecap="butt" stroke-linejoin="miter" stroke="rgb(79.998779%, 0%, 0%)" stroke-opacity="1" stroke-miterlimit="10" d="M 4.533609 -0.000772666 C 3.977795 0.136224 1.53143 0.919061 0.000984543 1.772353 L 0.000984543 -1.773898 C 1.53143 -0.920606 3.977795 -0.137769 4.533609 -0.000772666 Z M 4.533609 -0.000772666 " transform="matrix(0, 0.997973, 0.997973, 0, 122.317177, 201.877924)"/>
<path fill="none" stroke-width="0.79701" stroke-linecap="butt" stroke-linejoin="miter" stroke="rgb(79.998779%, 0%, 0%)" stroke-opacity="1" stroke-miterlimit="10" d="M 14.172356 -56.692986 L 14.172356 -73.195185 " transform="matrix(0.997973, 0, 0, -0.997973, 136.461839, 128.832084)"/>
<path fill-rule="nonzero" fill="rgb(79.998779%, 0%, 0%)" fill-opacity="1" stroke-width="0.79701" stroke-linecap="butt" stroke-linejoin="miter" stroke="rgb(79.998779%, 0%, 0%)" stroke-opacity="1" stroke-miterlimit="10" d="M 4.533609 -0.00103358 C 3.977795 0.139877 1.53143 0.9188 0.000984543 1.772092 L 0.000984543 -1.770245 C 1.53143 -0.920867 3.977795 -0.13803 4.533609 -0.00103358 Z M 4.533609 -0.00103358 " transform="matrix(0, 0.997973, 0.997973, 0, 150.6065, 201.877924)"/>
<path fill="none" stroke-width="0.79701" stroke-linecap="butt" stroke-linejoin="miter" stroke="rgb(79.998779%, 0%, 0%)" stroke-opacity="1" stroke-miterlimit="10" d="M 42.518875 -56.692986 L 42.518875 -73.195185 " transform="matrix(0.997973, 0, 0, -0.997973, 136.461839, 128.832084)"/>
<path fill-rule="nonzero" fill="rgb(79.998779%, 0%, 0%)" fill-opacity="1" stroke-width="0.79701" stroke-linecap="butt" stroke-linejoin="miter" stroke="rgb(79.998779%, 0%, 0%)" stroke-opacity="1" stroke-miterlimit="10" d="M 4.533609 -0.0013245 C 3.977795 0.139586 1.53143 0.922423 0.000984543 1.771801 L 0.000984543 -1.770536 C 1.53143 -0.921158 3.977795 -0.138321 4.533609 -0.0013245 Z M 4.533609 -0.0013245 " transform="matrix(0, 0.997973, 0.997973, 0, 178.895853, 201.877924)"/>
<path fill="none" stroke-width="0.79701" stroke-linecap="butt" stroke-linejoin="miter" stroke="rgb(79.998779%, 0%, 0%)" stroke-opacity="1" stroke-miterlimit="10" d="M 70.865395 -56.692986 L 70.865395 -73.195185 " transform="matrix(0.997973, 0, 0, -0.997973, 136.461839, 128.832084)"/>
<path fill-rule="nonzero" fill="rgb(79.998779%, 0%, 0%)" fill-opacity="1" stroke-width="0.79701" stroke-linecap="butt" stroke-linejoin="miter" stroke="rgb(79.998779%, 0%, 0%)" stroke-opacity="1" stroke-miterlimit="10" d="M 4.533609 -0.00160542 C 3.977795 0.139305 1.53143 0.922142 0.000984543 1.77152 L 0.000984543 -1.770817 C 1.53143 -0.921439 3.977795 -0.138602 4.533609 -0.00160542 Z M 4.533609 -0.00160542 " transform="matrix(0, 0.997973, 0.997973, 0, 207.185196, 201.877924)"/>
<path fill="none" stroke-width="0.478" stroke-linecap="butt" stroke-linejoin="miter" stroke="rgb(79.998779%, 0%, 0%)" stroke-opacity="1" stroke-miterlimit="10" d="M -0.000956205 -0.00194807 L 10.622139 -0.00194807 " transform="matrix(0.997973, 0, 0, -0.997973, 126.450173, 213.130868)"/>
<g fill="rgb(79.998779%, 0%, 0%)" fill-opacity="1">
<use xlink:href="#glyph-0-3" x="126.450173" y="222.953917"/>
</g>
<g fill="rgb(79.998779%, 0%, 0%)" fill-opacity="1">
<use xlink:href="#glyph-1-1" x="137.050643" y="224.744281"/>
</g>
<g fill="rgb(79.998779%, 0%, 0%)" fill-opacity="1">
<use xlink:href="#glyph-1-1" x="141.514397" y="224.744281"/>
</g>
<path fill="none" stroke-width="1.19553" stroke-linecap="butt" stroke-linejoin="miter" stroke="rgb(0%, 50%, 0%)" stroke-opacity="1" stroke-miterlimit="10" d="M 92.127241 -51.025247 L 92.127241 43.251784 " transform="matrix(0.997973, 0, 0, -0.997973, 136.461839, 128.832084)"/>
<path fill-rule="nonzero" fill="rgb(0%, 50%, 0%)" fill-opacity="1" stroke-width="1.19553" stroke-linecap="butt" stroke-linejoin="miter" stroke="rgb(0%, 50%, 0%)" stroke-opacity="1" stroke-miterlimit="10" d="M 5.306047 -0.000140979 C 4.656292 0.164255 1.79111 1.088002 -0.00158649 2.097862 L -0.00158649 -2.098143 C 1.79111 -1.088284 4.656292 -0.164537 5.306047 -0.000140979 Z M 5.306047 -0.000140979 " transform="matrix(0, -0.997973, -0.997973, 0, 228.402203, 85.666385)"/>
<path fill="none" stroke-width="0.478" stroke-linecap="butt" stroke-linejoin="miter" stroke="rgb(0%, 50%, 0%)" stroke-opacity="1" stroke-miterlimit="10" d="M -0.00116397 0.000298834 L 10.621931 0.000298834 " transform="matrix(0.997973, 0, 0, -0.997973, 232.973818, 97.754204)"/>
<g fill="rgb(0%, 50%, 0%)" fill-opacity="1">
<use xlink:href="#glyph-0-3" x="232.973818" y="107.577253"/>
</g>
<g fill="rgb(0%, 50%, 0%)" fill-opacity="1">
<use xlink:href="#glyph-1-0" x="243.575286" y="109.366619"/>
<use xlink:href="#glyph-1-1" x="248.33254" y="109.366619"/>
</g>
<path fill="none" stroke-width="1.19553" stroke-linecap="butt" stroke-linejoin="miter" stroke="rgb(0%, 50%, 0%)" stroke-opacity="1" stroke-miterlimit="10" d="M -92.129047 51.025353 L -92.129047 -43.251678 " transform="matrix(0.997973, 0, 0, -0.997973, 136.461839, 128.832084)"/>
<path fill-rule="nonzero" fill="rgb(0%, 50%, 0%)" fill-opacity="1" stroke-width="1.19553" stroke-linecap="butt" stroke-linejoin="miter" stroke="rgb(0%, 50%, 0%)" stroke-opacity="1" stroke-miterlimit="10" d="M 5.305942 -0.00194723 C 4.656187 0.162448 1.791005 1.09011 -0.00169153 2.096055 L -0.00169153 -2.096036 C 1.791005 -1.09009 4.656187 -0.162429 5.305942 -0.00194723 Z M 5.305942 -0.00194723 " transform="matrix(0, 0.997973, 0.997973, 0, 44.521475, 171.997782)"/>
<path fill="none" stroke-width="0.478" stroke-linecap="butt" stroke-linejoin="miter" stroke="rgb(0%, 50%, 0%)" stroke-opacity="1" stroke-miterlimit="10" d="M 0.00168778 0.00139579 L 10.624783 0.00139579 " transform="matrix(0.997973, 0, 0, -0.997973, 19.631128, 147.466237)"/>
<g fill="rgb(0%, 50%, 0%)" fill-opacity="1">
<use xlink:href="#glyph-0-3" x="19.631128" y="157.289286"/>
</g>
<g fill="rgb(0%, 50%, 0%)" fill-opacity="1">
<use xlink:href="#glyph-1-0" x="30.232596" y="159.078651"/>
<use xlink:href="#glyph-1-1" x="34.989851" y="159.078651"/>
</g>
<path fill="none" stroke-width="1.19553" stroke-linecap="butt" stroke-linejoin="miter" stroke="rgb(0%, 50%, 0%)" stroke-opacity="1" stroke-miterlimit="10" d="M -79.372722 63.781678 L 71.601261 63.781678 " transform="matrix(0.997973, 0, 0, -0.997973, 136.461839, 128.832084)"/>
<path fill-rule="nonzero" fill="rgb(0%, 50%, 0%)" fill-opacity="1" stroke-width="1.19553" stroke-linecap="butt" stroke-linejoin="miter" stroke="rgb(0%, 50%, 0%)" stroke-opacity="1" stroke-miterlimit="10" d="M 5.30479 0.00137754 C 4.655036 0.161859 1.789853 1.089521 0.00107113 2.09938 L 0.00107113 -2.096625 C 1.789853 -1.09068 4.655036 -0.163018 5.30479 0.00137754 Z M 5.30479 0.00137754 " transform="matrix(0.997973, 0, 0, -0.997973, 207.9169, 65.181062)"/>
<path fill="none" stroke-width="0.478" stroke-linecap="butt" stroke-linejoin="miter" stroke="rgb(0%, 50%, 0%)" stroke-opacity="1" stroke-miterlimit="10" d="M -0.000987691 0.000157812 L 10.622107 0.000157812 " transform="matrix(0.997973, 0, 0, -0.997973, 156.129892, 47.449376)"/>
<g fill="rgb(0%, 50%, 0%)" fill-opacity="1">
<use xlink:href="#glyph-0-3" x="156.129892" y="57.272425"/>
</g>
<g fill="rgb(0%, 50%, 0%)" fill-opacity="1">
<use xlink:href="#glyph-1-0" x="166.73136" y="59.061791"/>
<use xlink:href="#glyph-1-1" x="171.488614" y="59.061791"/>
</g>
<path fill="none" stroke-width="1.19553" stroke-linecap="butt" stroke-linejoin="miter" stroke="rgb(0%, 50%, 0%)" stroke-opacity="1" stroke-miterlimit="10" d="M 79.370916 -63.781573 L -71.599153 -63.781573 " transform="matrix(0.997973, 0, 0, -0.997973, 136.461839, 128.832084)"/>
<path fill-rule="nonzero" fill="rgb(0%, 50%, 0%)" fill-opacity="1" stroke-width="1.19553" stroke-linecap="butt" stroke-linejoin="miter" stroke="rgb(0%, 50%, 0%)" stroke-opacity="1" stroke-miterlimit="10" d="M 5.306596 0.0012725 C 4.652928 0.161754 1.791659 1.089416 -0.0010368 2.099275 L -0.0010368 -2.09673 C 1.791659 -1.090785 4.652928 -0.163123 5.306596 0.0012725 Z M 5.306596 0.0012725 " transform="matrix(-0.997973, 0, 0, 0.997973, 65.006778, 192.483105)"/>
<path fill="none" stroke-width="0.478" stroke-linecap="butt" stroke-linejoin="miter" stroke="rgb(0%, 50%, 0%)" stroke-opacity="1" stroke-miterlimit="10" d="M -0.00164671 0.00153681 L 10.621448 0.00153681 " transform="matrix(0.997973, 0, 0, -0.997973, 101.446956, 197.771065)"/>
<g fill="rgb(0%, 50%, 0%)" fill-opacity="1">
<use xlink:href="#glyph-0-3" x="101.446956" y="207.594114"/>
</g>
<g fill="rgb(0%, 50%, 0%)" fill-opacity="1">
<use xlink:href="#glyph-1-0" x="112.047426" y="209.38348"/>
<use xlink:href="#glyph-1-1" x="116.80468" y="209.38348"/>
</g>
</svg>
